<svg width="1480" height="1482" viewBox="0 0 1480 1482" fill="none" xmlns="http://www.w3.org/2000/svg">
<path d="M1414.28 897.155L1458.55 908.966L1457.37 913.383L1417.29 902.684L1411.2 925.455L1451.28 936.153L1450.11 940.57L1405.84 928.76L1414.28 897.155Z" fill="#4C4C4C"/>
<path d="M1431.81 873.861C1432.73 869.281 1435.15 865.714 1439.04 863.13C1442.94 860.578 1447.25 859.76 1451.97 860.709C1456.68 861.657 1460.31 864.079 1462.89 867.972C1465.48 871.865 1466.33 876.086 1465.38 880.666C1464.24 886.359 1461 890.186 1455.7 892.182L1474.8 896.075L1473.95 900.296L1429.06 891.201L1429.95 886.98L1436.23 888.256C1432.11 884.363 1430.63 879.554 1431.81 873.861ZM1455.73 888.42C1458.67 886.489 1460.51 883.741 1461.23 880.208C1461.94 876.674 1461.32 873.403 1459.36 870.491C1457.4 867.547 1454.65 865.714 1451.08 864.995C1447.55 864.275 1444.28 864.897 1441.33 866.827C1438.39 868.757 1436.56 871.505 1435.84 875.071C1435.12 878.605 1435.74 881.876 1437.7 884.788C1439.66 887.733 1442.41 889.565 1445.98 890.285C1449.51 890.972 1452.78 890.35 1455.73 888.42Z" fill="#4C4C4C"/>
<path d="M1440.42 827.042L1440.94 823.41L1473.33 828.121L1472.71 832.407L1447.78 828.776L1469.9 851.71L1469.37 855.342L1436.98 850.631L1437.61 846.345L1462.54 849.976L1440.42 827.042Z" fill="#4C4C4C"/>
<path d="M1459.79 795.308C1461.42 791.872 1464.14 790.335 1467.9 790.695C1470.55 790.956 1472.65 792.036 1474.18 793.966C1475.72 795.897 1476.34 798.514 1476.05 801.786L1474.54 817.621L1441.96 814.513L1443.33 799.986C1443.63 796.813 1444.67 794.457 1446.47 792.854C1448.27 791.251 1450.43 790.596 1453.02 790.858C1456.32 791.185 1458.55 792.658 1459.79 795.308ZM1471.89 801.393C1472.09 799.496 1471.76 797.991 1470.95 796.878C1470.13 795.766 1468.88 795.144 1467.25 794.98C1465.74 794.85 1464.47 795.242 1463.49 796.158C1462.5 797.074 1461.92 798.514 1461.72 800.412L1460.61 811.928L1470.78 812.91L1471.89 801.393ZM1447.52 800.379L1446.54 810.619L1456.45 811.568L1457.43 801.328C1457.79 797.565 1456.29 795.504 1452.89 795.177C1451.38 795.046 1450.14 795.406 1449.19 796.289C1448.24 797.173 1447.72 798.579 1447.52 800.379Z" fill="#4C4C4C"/>
<path d="M1444.8 767.105C1445.03 762.263 1446.9 758.435 1450.46 755.621C1454.03 752.775 1458.12 751.499 1462.8 751.695C1463.29 751.728 1463.94 751.793 1464.83 751.924L1463.52 780.617C1466.86 780.323 1469.54 779.047 1471.6 776.757C1473.66 774.467 1474.74 771.587 1474.9 768.087C1475.03 765.6 1474.61 763.441 1473.66 761.576C1472.71 759.711 1471.44 758.304 1469.83 757.323L1472.22 753.626C1474.48 755.163 1476.21 757.224 1477.46 759.744C1478.7 762.296 1479.22 765.142 1479.09 768.348C1478.86 773.485 1477.06 777.607 1473.69 780.683C1470.32 783.758 1466.17 785.198 1461.2 784.969C1456.32 784.74 1452.33 782.973 1449.19 779.636C1446.05 776.266 1444.57 772.111 1444.8 767.105ZM1448.99 767.301C1448.83 770.704 1449.71 773.583 1451.64 775.971C1453.57 778.36 1456.12 779.832 1459.33 780.421L1460.44 756.047C1456.97 756.308 1454.23 757.519 1452.23 759.678C1450.24 761.838 1449.12 764.324 1448.99 767.301Z" fill="#4C4C4C"/>
<path d="M1446.08 722.021L1450.27 721.955L1450.46 733.537L1478.99 733.079L1479.06 737.398L1450.53 737.856L1450.73 749.438L1446.54 749.503L1446.08 722.021Z" fill="#4C4C4C"/>
<path d="M1461.52 694.41C1461.62 696.242 1461.06 697.845 1459.85 699.186C1458.64 700.56 1457.13 701.28 1455.3 701.378C1453.5 701.477 1451.96 700.92 1450.62 699.71C1449.28 698.499 1448.56 696.962 1448.46 695.129C1448.37 693.33 1448.92 691.792 1450.1 690.451C1451.28 689.109 1452.78 688.39 1454.58 688.291C1456.41 688.193 1457.98 688.717 1459.36 689.927C1460.7 691.138 1461.42 692.643 1461.52 694.41Z" fill="#4C4C4C"/>
<path d="M1426.31 636.829L1425.76 632.281L1471.2 626.589L1471.76 631.136L1450.52 633.786L1453.6 658.455L1474.83 655.805L1475.39 660.352L1429.95 666.045L1429.39 661.497L1449.31 659.011L1446.24 634.343L1426.31 636.829Z" fill="#4C4C4C"/>
<path d="M1433.68 606.468C1432.8 601.691 1433.78 597.536 1436.6 593.97C1439.41 590.403 1443.14 588.211 1447.72 587.361C1448.18 587.263 1448.86 587.197 1449.75 587.132L1454.98 615.367C1458.16 614.32 1460.48 612.488 1461.95 609.772C1463.42 607.089 1463.85 604.014 1463.19 600.579C1462.74 598.125 1461.85 596.129 1460.51 594.526C1459.17 592.923 1457.6 591.843 1455.8 591.254L1457.31 587.132C1459.86 588.113 1462.02 589.717 1463.78 591.909C1465.55 594.101 1466.76 596.783 1467.32 599.892C1468.27 604.963 1467.45 609.38 1464.86 613.142C1462.28 616.905 1458.55 619.228 1453.64 620.144C1448.83 621.027 1444.55 620.209 1440.75 617.69C1436.96 615.138 1434.6 611.375 1433.68 606.468ZM1437.81 605.683C1438.43 609.02 1439.93 611.637 1442.35 613.535C1444.77 615.432 1447.59 616.283 1450.86 616.119L1446.41 592.138C1443.11 593.184 1440.72 594.984 1439.21 597.536C1437.71 600.088 1437.28 602.771 1437.81 605.683Z" fill="#4C4C4C"/>
<path d="M1461.82 576.761L1415.2 587.198L1414.25 582.977L1460.87 572.54L1461.82 576.761Z" fill="#4C4C4C"/>
<path d="M1458.67 563.053L1412.28 574.373L1411.27 570.185L1457.66 558.865L1458.67 563.053Z" fill="#4C4C4C"/>
<path d="M1443.76 523.66C1447.85 525.983 1450.53 529.419 1451.84 534.032C1453.15 538.645 1452.69 542.996 1450.43 547.119C1448.18 551.241 1444.74 553.957 1440.06 555.265C1435.38 556.574 1431.03 556.083 1426.94 553.793C1422.85 551.47 1420.17 548.035 1418.86 543.422C1417.55 538.809 1418.01 534.457 1420.27 530.335C1422.53 526.212 1425.99 523.497 1430.64 522.188C1435.32 520.879 1439.7 521.37 1443.76 523.66ZM1446.74 545.025C1448.47 541.949 1448.83 538.678 1447.85 535.177C1446.87 531.709 1444.81 529.092 1441.73 527.39C1438.62 525.689 1435.35 525.329 1431.85 526.31C1428.38 527.292 1425.76 529.32 1424.03 532.429C1422.3 535.504 1421.94 538.776 1422.92 542.277C1423.9 545.777 1425.96 548.362 1429.04 550.063C1432.14 551.765 1435.42 552.125 1438.92 551.143C1442.38 550.161 1445 548.133 1446.74 545.025Z" fill="#4C4C4C"/>
<path d="M1421.09 494.183C1421.71 495.917 1421.61 497.586 1420.83 499.222C1420.04 500.858 1418.8 502.003 1417.06 502.625C1415.36 503.213 1413.73 503.148 1412.09 502.363C1410.45 501.578 1409.34 500.334 1408.72 498.6C1408.13 496.932 1408.2 495.263 1408.98 493.66C1409.77 492.057 1410.98 490.944 1412.65 490.323C1414.38 489.701 1416.05 489.767 1417.68 490.519C1419.35 491.272 1420.5 492.482 1421.09 494.183Z" fill="#4C4C4C"/>
<path d="M1392.85 443.736C1392.85 441.315 1393.47 439.09 1394.72 437.127C1395.96 435.131 1397.73 433.626 1400.02 432.645C1403.25 431.238 1406.53 431.173 1409.8 432.481C1413.07 433.79 1415.39 436.047 1416.8 439.286L1424.75 457.607L1382.74 475.831L1375.38 458.916C1374.04 455.808 1373.97 452.667 1375.25 449.494C1376.52 446.32 1378.68 444.063 1381.76 442.754C1385.69 441.02 1389.38 441.347 1392.85 443.736ZM1412.84 440.988C1411.92 438.894 1410.42 437.454 1408.29 436.669C1406.17 435.851 1404.01 435.916 1401.85 436.865C1399.72 437.781 1398.22 439.319 1397.33 441.413C1396.45 443.539 1396.45 445.633 1397.37 447.727L1403.48 461.828L1418.96 455.121L1412.84 440.988ZM1379.34 457.182L1384.87 469.909L1399.52 463.562L1394 450.835C1393.14 448.872 1391.71 447.498 1389.68 446.746C1387.65 445.993 1385.62 446.058 1383.59 446.942C1381.6 447.792 1380.19 449.232 1379.34 451.26C1378.49 453.223 1378.49 455.219 1379.34 457.182Z" fill="#4C4C4C"/>
<path d="M1368.04 413.177L1366.11 409.317L1395.36 394.627L1397.29 398.487L1392.75 400.778C1397.36 401.203 1400.76 403.591 1402.95 407.975C1404.72 411.509 1405.05 414.879 1403.94 417.987C1402.79 421.127 1400.4 423.614 1396.74 425.446L1378.78 434.476L1376.85 430.615L1394.81 421.585C1397.43 420.277 1399.09 418.576 1399.85 416.449C1400.6 414.322 1400.34 412.032 1399.06 409.48C1397.65 406.667 1395.63 404.835 1392.98 403.984C1390.33 403.133 1387.15 403.624 1383.42 405.489L1368.04 413.177Z" fill="#4C4C4C"/>
<path d="M1353.75 388.706C1351.36 384.485 1350.9 380.265 1352.37 375.946C1353.88 371.66 1356.63 368.356 1360.68 366.033C1361.11 365.804 1361.7 365.509 1362.52 365.149L1376.75 390.113C1379.4 388.084 1381 385.565 1381.49 382.555C1382.02 379.545 1381.4 376.502 1379.66 373.459C1378.42 371.3 1376.91 369.697 1375.15 368.617C1373.38 367.538 1371.51 367.047 1369.62 367.047L1369.68 362.663C1372.4 362.761 1374.98 363.579 1377.37 365.051C1379.79 366.556 1381.75 368.683 1383.36 371.431C1385.91 375.913 1386.6 380.33 1385.39 384.747C1384.18 389.164 1381.43 392.599 1377.11 395.053C1372.86 397.474 1368.54 398.128 1364.12 396.983C1359.67 395.838 1356.24 393.09 1353.75 388.706ZM1357.38 386.645C1359.05 389.589 1361.34 391.585 1364.25 392.566C1367.16 393.548 1370.11 393.417 1373.12 392.207L1361.01 371.006C1358.23 373.1 1356.56 375.586 1356.01 378.465C1355.45 381.344 1355.91 384.06 1357.38 386.645Z" fill="#4C4C4C"/>
<path d="M1333.93 356.12C1331.77 352.783 1331.11 349.511 1331.9 346.272C1332.68 343.033 1334.81 340.318 1338.28 338.093L1355.16 327.231L1357.48 330.863L1340.6 341.725C1338.15 343.295 1336.64 345.192 1336.12 347.352C1335.59 349.511 1336.12 351.801 1337.66 354.19C1339.36 356.84 1341.58 358.443 1344.3 359.032C1347.01 359.62 1350.12 358.77 1353.62 356.545L1368.05 347.286L1370.37 350.918L1342.86 368.618L1340.54 364.986L1344.82 362.238C1340.18 362.27 1336.54 360.242 1333.93 356.12Z" fill="#4C4C4C"/>
<path d="M1306.61 315.42L1304.09 311.92L1330.59 292.715L1333.14 296.216L1327.94 299.978C1333.6 299.586 1338.11 301.778 1341.52 306.456C1344.27 310.251 1345.25 314.439 1344.49 319.052C1343.74 323.665 1341.42 327.362 1337.53 330.208C1333.63 333.022 1329.38 334.069 1324.77 333.349C1320.15 332.629 1316.46 330.372 1313.74 326.609C1310.34 321.898 1309.68 316.925 1311.81 311.691L1306.61 315.42ZM1340.24 318.3C1340.83 314.799 1340.04 311.593 1337.92 308.681C1335.79 305.736 1332.98 304.002 1329.51 303.479C1326.04 302.955 1322.8 303.741 1319.89 305.835C1316.95 307.961 1315.21 310.775 1314.62 314.243C1314.03 317.743 1314.82 320.949 1316.95 323.861C1319.07 326.806 1321.89 328.54 1325.35 329.063C1328.86 329.619 1332.06 328.802 1334.97 326.675C1337.92 324.581 1339.65 321.767 1340.24 318.3Z" fill="#4C4C4C"/>
<path d="M1303.07 296.87C1304.22 295.954 1304.74 294.678 1304.61 293.14C1304.48 291.57 1303.99 289.901 1303.2 288.135C1302.42 286.368 1301.63 284.569 1300.91 282.736C1300.19 280.904 1299.96 279.039 1300.22 277.174C1300.49 275.309 1301.47 273.641 1303.2 272.267C1305.39 270.5 1307.85 269.944 1310.56 270.565C1313.31 271.187 1315.77 272.856 1317.96 275.571C1319.92 278.025 1321.07 280.544 1321.36 283.129C1321.65 285.714 1321.2 288.037 1320.02 290.13L1316.03 288.625C1316.98 287.088 1317.34 285.386 1317.11 283.522C1316.88 281.657 1316.06 279.89 1314.72 278.189C1313.38 276.52 1311.94 275.408 1310.37 274.819C1308.8 274.23 1307.32 274.492 1305.92 275.604C1304.77 276.52 1304.25 277.796 1304.38 279.334C1304.51 280.904 1305 282.573 1305.79 284.339C1306.57 286.106 1307.36 287.906 1308.08 289.738C1308.8 291.57 1309.03 293.435 1308.76 295.3C1308.5 297.197 1307.52 298.833 1305.79 300.207C1303.73 301.876 1301.3 302.432 1298.59 301.909C1295.87 301.385 1293.52 299.848 1291.49 297.328C1289.82 295.267 1288.84 293.075 1288.51 290.752C1288.18 288.429 1288.51 286.27 1289.53 284.241L1293.42 285.746C1291.82 288.658 1292.27 291.635 1294.76 294.744C1295.94 296.216 1297.31 297.197 1298.85 297.688C1300.36 298.179 1301.8 297.917 1303.07 296.87Z" fill="#4C4C4C"/>
<path d="M1240.55 258.068L1237.61 254.927L1271.11 223.683L1274.05 226.824L1269.37 231.208C1274.94 230.128 1279.71 231.731 1283.64 235.952C1286.81 239.354 1288.32 243.411 1288.15 248.09C1287.99 252.768 1286.13 256.727 1282.63 259.998C1279.12 263.27 1275.03 264.84 1270.36 264.677C1265.68 264.546 1261.75 262.747 1258.58 259.344C1254.62 255.091 1253.38 250.249 1254.82 244.753L1240.55 258.068ZM1283.84 247.828C1283.97 244.294 1282.82 241.219 1280.34 238.569C1277.85 235.919 1274.87 234.545 1271.34 234.447C1267.8 234.349 1264.73 235.526 1262.08 237.98C1259.43 240.434 1258.05 243.444 1257.89 246.977C1257.76 250.511 1258.91 253.586 1261.39 256.236C1263.85 258.886 1266.86 260.26 1270.39 260.358C1273.92 260.456 1277 259.279 1279.65 256.825C1282.33 254.371 1283.7 251.361 1283.84 247.828Z" fill="#4C4C4C"/>
<path d="M1263.78 216.485L1240.75 239.714L1237.67 236.672L1260.7 213.442L1263.78 216.485ZM1232.08 242.201C1232.93 242.201 1233.68 242.496 1234.3 243.117C1234.92 243.739 1235.25 244.459 1235.25 245.342C1235.25 246.193 1234.95 246.945 1234.33 247.567C1233.71 248.188 1232.99 248.515 1232.11 248.515C1231.22 248.515 1230.51 248.221 1229.88 247.599C1229.26 246.978 1228.93 246.258 1228.93 245.375C1228.93 244.524 1229.23 243.772 1229.85 243.15C1230.47 242.528 1231.22 242.201 1232.08 242.201Z" fill="#4C4C4C"/>
<path d="M1210.61 211.252L1207.44 208.34L1229.55 184.228L1232.73 187.14L1228.38 191.851C1233.84 190.346 1238.71 191.556 1242.97 195.482C1246.4 198.623 1248.23 202.549 1248.4 207.228C1248.59 211.906 1247.06 215.996 1243.82 219.529C1240.58 223.062 1236.62 224.927 1231.94 225.156C1227.26 225.385 1223.21 223.913 1219.77 220.74C1215.48 216.814 1213.88 212.07 1214.9 206.508L1210.61 211.252ZM1244.15 207.326C1244.01 203.792 1242.61 200.815 1239.92 198.361C1237.27 195.908 1234.17 194.763 1230.63 194.926C1227.1 195.09 1224.12 196.497 1221.67 199.179C1219.21 201.862 1218.07 204.937 1218.2 208.471C1218.33 212.004 1219.74 214.981 1222.42 217.435C1225.1 219.889 1228.18 221.034 1231.71 220.87C1235.25 220.707 1238.22 219.3 1240.68 216.617C1243.13 213.934 1244.28 210.859 1244.15 207.326Z" fill="#4C4C4C"/>
<path d="M1203.48 193.813C1204.43 192.668 1204.66 191.36 1204.24 189.855C1203.78 188.35 1202.99 186.812 1201.85 185.241C1200.7 183.671 1199.62 182.068 1198.54 180.399C1197.46 178.763 1196.87 176.964 1196.74 175.099C1196.61 173.201 1197.27 171.402 1198.67 169.701C1200.44 167.541 1202.76 166.494 1205.54 166.56C1208.33 166.625 1211.11 167.77 1213.79 169.995C1216.21 171.991 1217.81 174.248 1218.63 176.735C1219.45 179.221 1219.48 181.577 1218.73 183.867L1214.54 183.18C1215.16 181.479 1215.16 179.745 1214.57 177.978C1213.99 176.211 1212.84 174.608 1211.17 173.234C1209.54 171.86 1207.87 171.042 1206.23 170.78C1204.6 170.519 1203.19 171.075 1202.04 172.449C1201.09 173.594 1200.83 174.903 1201.29 176.408C1201.75 177.913 1202.53 179.45 1203.68 181.021C1204.82 182.591 1205.9 184.194 1206.98 185.83C1208.06 187.466 1208.65 189.266 1208.78 191.163C1208.91 193.061 1208.26 194.86 1206.85 196.562C1205.15 198.623 1202.93 199.637 1200.15 199.67C1197.36 199.703 1194.75 198.688 1192.26 196.627C1190.2 194.926 1188.79 192.963 1188.01 190.771C1187.22 188.579 1187.12 186.354 1187.68 184.194L1191.77 184.882C1190.79 188.023 1191.84 190.869 1194.88 193.421C1196.32 194.631 1197.86 195.318 1199.46 195.482C1201.09 195.646 1202.44 195.089 1203.48 193.813Z" fill="#4C4C4C"/>
<path d="M1170.24 157.727C1171.71 158.807 1172.6 160.246 1172.86 162.046C1173.12 163.845 1172.73 165.481 1171.65 166.953C1170.6 168.393 1169.16 169.244 1167.36 169.505C1165.59 169.767 1163.96 169.342 1162.45 168.262C1161.01 167.215 1160.16 165.776 1159.9 164.009C1159.64 162.242 1160.03 160.639 1161.08 159.199C1162.16 157.727 1163.6 156.844 1165.36 156.549C1167.2 156.287 1168.8 156.68 1170.24 157.727Z" fill="#4C4C4C"/>
<path d="M1100.62 146.406L1125.19 107.768L1129.05 110.222L1106.77 145.229L1126.66 157.857L1148.94 122.85L1152.8 125.304L1128.23 163.942L1100.62 146.406Z" fill="#4C4C4C"/>
<path d="M1083.74 122.655C1079.65 120.398 1076.96 116.996 1075.72 112.513C1074.44 107.998 1074.97 103.68 1077.29 99.4594C1079.61 95.2717 1083.02 92.5235 1087.53 91.2149C1092.01 89.9062 1096.3 90.3969 1100.39 92.6544C1105.46 95.468 1108.14 99.7212 1108.47 105.348L1117.93 88.303L1121.69 90.3969L1099.47 130.442L1095.71 128.348L1098.82 122.754C1093.81 125.534 1088.81 125.469 1083.74 122.655ZM1104.81 104.236C1103.86 100.833 1101.8 98.2489 1098.62 96.5149C1095.45 94.7482 1092.18 94.3883 1088.77 95.3698C1085.37 96.3513 1082.82 98.4452 1081.05 101.586C1079.29 104.759 1078.89 108.031 1079.84 111.434C1080.79 114.836 1082.85 117.421 1086.03 119.155C1089.2 120.922 1092.47 121.281 1095.87 120.3C1099.28 119.318 1101.83 117.224 1103.6 114.084C1105.36 110.91 1105.76 107.639 1104.81 104.236Z" fill="#4C4C4C"/>
<path d="M1056.58 93.7001C1053.83 92.3915 1051.9 90.3957 1050.82 87.7784C1049.74 85.161 1049.84 82.511 1051.11 79.8283C1052.39 77.1455 1054.38 75.4115 1057.13 74.6263C1059.85 73.8411 1062.6 74.1028 1065.34 75.4115L1077.32 81.1369L1063.19 110.647L1059.29 108.782L1064.66 97.5607L1056.58 93.7001ZM1063.51 79.2066C1061.84 78.4214 1060.21 78.2252 1058.57 78.6505C1056.94 79.0758 1055.73 80.09 1054.97 81.7259C1054.19 83.329 1054.16 84.8993 1054.84 86.4697C1055.53 88.0074 1056.71 89.1852 1058.34 89.9704L1066.42 93.8309L1071.56 83.0999L1063.51 79.2066ZM1037.21 98.2149L1033.31 96.3502L1047.45 66.8398L1051.34 68.7046L1037.21 98.2149Z" fill="#4C4C4C"/>
<path d="M1012.02 70.1774C1009.21 67.5928 1008.55 64.55 1009.99 61.0493C1011.01 58.5955 1012.67 56.8941 1014.96 55.978C1017.25 55.0619 1019.94 55.2255 1022.98 56.5015L1037.67 62.587L1025.14 92.8178L1011.66 87.2232C1008.71 86.0126 1006.75 84.3113 1005.77 82.1193C1004.79 79.9272 1004.79 77.6697 1005.77 75.2813C1007.01 72.3041 1009.11 70.5701 1012.02 70.1774ZM1021.38 60.3949C1019.61 59.6751 1018.07 59.5115 1016.76 59.9695C1015.45 60.4276 1014.51 61.4091 1013.85 62.9468C1013.26 64.3537 1013.26 65.6624 1013.88 66.9057C1014.51 68.1162 1015.68 69.0977 1017.45 69.8502L1028.15 74.2998L1032.08 64.8771L1021.38 60.3949ZM1013.26 83.3626L1022.75 87.2886L1026.58 78.095L1017.09 74.169C1013.59 72.7294 1011.17 73.5473 1009.86 76.6882C1009.27 78.095 1009.27 79.371 1009.86 80.5488C1010.42 81.7593 1011.56 82.6755 1013.26 83.3626Z" fill="#4C4C4C"/>
<path d="M972.626 72.5333L969.19 71.29L980.216 40.471L984.273 41.9105L975.799 65.63L1002.66 48.4866L1006.1 49.7298L995.07 80.5488L991.013 79.1092L999.487 55.3897L972.626 72.5333Z" fill="#4C4C4C"/>
<path d="M938.079 61.6384L939.323 57.6468L950.381 61.0495L958.724 33.7632L962.846 35.0392L954.503 62.3254L965.595 65.728L964.384 69.7196L938.079 61.6384Z" fill="#4C4C4C"/>
<path d="M907.256 53.6879L903.069 52.6409L911.117 20.9378L915.305 21.9846L913.734 28.201C917.824 24.2749 922.699 23.0316 928.326 24.4712C932.841 25.6163 936.309 28.2009 938.665 32.2252C941.053 36.2494 941.642 40.6009 940.465 45.2468C939.287 49.8926 936.702 53.4261 932.678 55.8145C928.686 58.2029 924.4 58.8573 919.885 57.7122C914.258 56.2726 910.594 52.87 908.827 47.4716L907.256 53.6879ZM934.903 34.3192C933.103 31.2764 930.453 29.3134 926.952 28.4301C923.451 27.5467 920.18 28.0047 917.137 29.8369C914.094 31.6691 912.164 34.3192 911.248 37.8199C910.365 41.3207 910.823 44.5924 912.622 47.6352C914.422 50.6779 917.072 52.6409 920.572 53.5243C924.073 54.4076 927.345 53.9496 930.388 52.1174C933.43 50.2853 935.361 47.6351 936.277 44.1344C937.16 40.6336 936.702 37.3619 934.903 34.3192Z" fill="#4C4C4C"/>
<path d="M871.625 46.2938L867.405 45.4758L873.654 13.3474L877.907 14.1654L875.191 28.1683L893.677 31.7673L896.392 17.7642L900.646 18.5821L894.396 50.7106L890.176 49.8927L892.892 35.8896L874.406 32.2907L871.625 46.2938Z" fill="#4C4C4C"/>
<path d="M835.673 40.7657L831.387 40.1768L835.967 7.78645L840.253 8.37535L838.257 22.5093L856.906 25.1594L858.902 11.0254L863.188 11.6471L858.608 44.0373L854.322 43.4484L856.317 29.3146L837.668 26.6645L835.673 40.7657Z" fill="#4C4C4C"/>
<path d="M807.373 38.6058C802.564 38.1804 798.801 36.1519 796.119 32.4549C793.436 28.7578 792.291 24.6354 792.716 19.9568C792.749 19.4661 792.847 18.8117 793.01 17.9611L821.638 20.4477C821.507 17.1105 820.329 14.3622 818.137 12.2356C815.945 10.1089 813.099 8.86568 809.631 8.57122C807.144 8.3422 804.985 8.66933 803.087 9.5527C801.19 10.4034 799.717 11.6466 798.67 13.217L795.072 10.6652C796.708 8.47311 798.834 6.83718 801.419 5.69207C804.003 4.57968 806.883 4.12159 810.056 4.41604C815.193 4.87409 819.217 6.83713 822.162 10.3379C825.106 13.8387 826.349 18.0592 825.924 23.0323C825.499 27.9072 823.568 31.8334 820.1 34.8106C816.632 37.7879 812.379 39.0311 807.373 38.6058ZM807.766 34.418C811.169 34.7125 814.08 33.96 816.534 32.1278C818.988 30.2956 820.591 27.8092 821.311 24.6356L797.002 22.5089C797.133 25.9769 798.245 28.7579 800.274 30.8845C802.302 32.9784 804.789 34.1563 807.766 34.418Z" fill="#4C4C4C"/>
<path d="M763.427 19.009C765.26 19.0417 766.797 19.7287 768.073 21.0374C769.317 22.3461 769.938 23.9166 769.873 25.7488C769.84 27.5482 769.153 29.0533 767.844 30.2965C766.536 31.5398 764.965 32.1287 763.133 32.0959C761.334 32.0632 759.829 31.3762 758.618 30.1002C757.375 28.7915 756.786 27.2537 756.819 25.487C756.851 23.6548 757.538 22.1171 758.814 20.8411C760.09 19.5979 761.661 18.9763 763.427 19.009Z" fill="#4C4C4C"/>
<path d="M706.276 27.2216C704.019 26.3709 702.187 24.9641 700.78 23.0993C699.373 21.2017 698.62 19.0424 698.522 16.5559C698.391 13.0225 699.504 9.97995 701.892 7.39534C704.281 4.81074 707.225 3.43664 710.759 3.30577L730.683 2.48786L732.548 48.2583L714.096 49.0108C710.693 49.1417 707.749 48.062 705.262 45.7392C702.776 43.4163 701.434 40.5699 701.303 37.2328C701.14 32.9142 702.776 29.6099 706.276 27.2216ZM713.932 44.6595L727.804 44.1033L727.15 28.1375L713.278 28.6939C711.151 28.792 709.352 29.6425 707.912 31.2456C706.473 32.8488 705.786 34.7791 705.884 37.0038C705.982 39.1958 706.8 41.0279 708.37 42.5329C709.941 44.0379 711.805 44.7576 713.932 44.6595ZM710.889 7.59163C708.632 7.68978 706.734 8.57316 705.197 10.2744C703.692 11.9757 702.972 14.0041 703.07 16.3596C703.168 18.6825 704.052 20.6127 705.687 22.2158C707.356 23.819 709.319 24.5714 711.576 24.4733L726.954 23.8517L726.267 6.97001L710.889 7.59163Z" fill="#4C4C4C"/>
<path d="M662.301 11.2861C665.311 7.6872 669.205 5.65874 673.981 5.16798C678.758 4.70994 682.979 5.95304 686.61 8.89761C690.242 11.8422 692.303 15.7357 692.761 20.5452C693.219 25.3547 691.976 29.5752 688.966 33.1741C685.956 36.773 682.063 38.8014 677.319 39.2922C672.542 39.7503 668.321 38.5069 664.69 35.5624C661.058 32.6178 658.997 28.7244 658.506 23.915C658.048 19.1055 659.291 14.885 662.301 11.2861ZM683.862 12.2021C681.147 9.9446 677.973 8.99581 674.374 9.3557C670.775 9.71559 667.863 11.2535 665.606 14.0017C663.348 16.75 662.432 19.9235 662.792 23.5224C663.152 27.1213 664.69 30.0659 667.405 32.3234C670.121 34.5809 673.294 35.5297 676.893 35.1698C680.492 34.8099 683.404 33.2722 685.629 30.524C687.854 27.7757 688.802 24.602 688.442 21.0031C688.115 17.3715 686.578 14.4596 683.862 12.2021Z" fill="#4C4C4C"/>
<path d="M638.189 44.2332C634.263 44.8221 630.991 44.1024 628.374 42.0412C625.756 39.98 624.12 36.9372 623.499 32.8802L620.456 13.0207L624.709 12.3666L627.752 32.2258C628.177 35.105 629.29 37.2316 631.089 38.6058C632.856 39.9799 635.146 40.4379 637.96 40.0126C641.068 39.5546 643.424 38.1804 645.092 35.9229C646.728 33.6654 647.251 30.4919 646.63 26.4022L644.045 9.45466L648.331 8.80027L653.271 41.1578L649.018 41.8121L648.233 36.7736C646.335 40.9942 643.031 43.5134 638.189 44.2332Z" fill="#4C4C4C"/>
<path d="M618.817 59.2171C618.327 59.9369 617.672 60.3622 616.789 60.5257C615.938 60.6893 615.153 60.5258 614.433 60.035C613.714 59.5443 613.288 58.8899 613.125 58.0066C612.961 57.156 613.125 56.3708 613.615 55.651C614.106 54.9312 614.76 54.5058 615.644 54.3423C616.495 54.1787 617.28 54.3423 618 54.8331C618.719 55.3238 619.145 55.9781 619.308 56.8615C619.472 57.7448 619.308 58.4973 618.817 59.2171ZM609.886 12.4323L616.462 47.1447L612.209 47.9626L605.632 13.2503C604.913 9.3897 605.371 6.31429 607.007 3.99142C608.642 1.66854 611.358 0.359973 615.12 9.4996e-05L615.906 4.12241C613.321 4.35143 611.554 5.10392 610.573 6.37986C609.591 7.65581 609.362 9.68415 609.886 12.4323Z" fill="#4C4C4C"/>
<path d="M570.236 27.8749C572.755 23.9161 576.354 21.3969 581.033 20.3172C585.711 19.2375 590.03 19.9244 594.021 22.411C598.013 24.8648 600.565 28.4638 601.645 33.1751C602.724 37.8864 602.004 42.2378 599.485 46.1966C596.966 50.1554 593.367 52.6746 588.688 53.7543C584.01 54.834 579.691 54.1469 575.7 51.6604C571.708 49.2066 569.156 45.6077 568.077 40.8964C566.997 36.1851 567.717 31.8337 570.236 27.8749ZM591.731 26.01C588.754 24.1124 585.482 23.5889 581.949 24.4069C578.415 25.2248 575.732 27.1224 573.867 30.1324C572.003 33.1424 571.479 36.4141 572.297 39.9149C573.115 43.4484 575.013 46.1638 577.99 48.0287C580.967 49.9263 584.239 50.4499 587.772 49.632C591.306 48.814 593.989 46.9164 595.854 43.9064C597.718 40.8964 598.242 37.6246 597.424 34.1238C596.606 30.6231 594.708 27.9076 591.731 26.01Z" fill="#4C4C4C"/>
<path d="M542.882 65.0732L538.727 66.2837L529.664 34.8424L533.819 33.6318L535.226 38.5394C536.502 34.0899 539.479 31.1779 544.158 29.8365C547.986 28.7241 551.323 29.0186 554.202 30.7199C557.081 32.4212 559.077 35.2348 560.222 39.1609L565.784 58.4642L561.629 59.6748L556.067 40.3716C555.249 37.5579 553.875 35.5947 551.945 34.4823C550.014 33.3699 547.691 33.2064 544.943 33.9917C541.933 34.875 539.741 36.5108 538.4 38.9646C537.058 41.4184 536.96 44.6247 538.105 48.6163L542.882 65.0732Z" fill="#4C4C4C"/>
<path d="M524.431 65.2694C523.777 69.6535 521.127 72.6308 516.514 74.1685L515.205 70.2096C518.019 69.2608 520.08 67.6577 521.388 65.4002C522.697 63.1099 522.763 60.1981 521.585 56.6647L515.826 39.3898L519.916 38.0157L530.255 69.0645L526.165 70.4387L524.431 65.2694Z" fill="#4C4C4C"/>
<path d="M484.779 67.985C486.48 67.3307 488.181 67.3307 489.85 68.0832C491.518 68.803 492.696 70.0135 493.351 71.7475C494.005 73.4161 493.972 75.052 493.22 76.7206C492.467 78.3565 491.257 79.5343 489.555 80.1886C487.887 80.843 486.251 80.8103 484.615 80.0905C482.979 79.3707 481.834 78.1929 481.18 76.5243C480.525 74.823 480.525 73.1217 481.245 71.4858C481.932 69.7845 483.11 68.6394 484.779 67.985Z" fill="#4C4C4C"/>
<path d="M438.054 120.824L418.489 79.4043L422.644 77.4414L440.377 114.935L461.676 104.858L443.943 67.3647L448.099 65.4016L467.664 106.821L438.054 120.824Z" fill="#4C4C4C"/>
<path d="M408.94 122.458C404.851 124.716 400.565 125.174 396.082 123.832C391.6 122.524 388.197 119.743 385.907 115.555C383.584 111.335 383.094 106.983 384.37 102.501C385.646 98.0189 388.361 94.6491 392.451 92.3917C397.522 89.6108 402.56 89.5781 407.501 92.3263L398.111 75.2482L401.906 73.1543L423.958 113.298L420.162 115.391L417.087 109.764C416.727 115.457 414.044 119.677 408.94 122.458ZM404.589 94.8128C401.186 93.7986 397.914 94.1912 394.741 95.9251C391.567 97.6591 389.506 100.244 388.525 103.646C387.543 107.049 387.936 110.32 389.67 113.494C391.404 116.667 393.988 118.761 397.358 119.743C400.728 120.757 404.033 120.364 407.206 118.63C410.38 116.896 412.441 114.312 413.423 110.909C414.404 107.507 414.012 104.235 412.277 101.062C410.543 97.8882 407.991 95.827 404.589 94.8128Z" fill="#4C4C4C"/>
<path d="M367.614 146.144L364.505 148.075L347.198 120.331L350.862 118.041L364.211 139.405L367.417 107.703L370.525 105.772L387.833 133.516L384.169 135.806L370.853 114.442L367.614 146.144Z" fill="#4C4C4C"/>
<path d="M330.943 151.806C327.246 152.754 324.334 151.707 322.175 148.567C320.67 146.375 320.146 144.084 320.604 141.663C321.062 139.242 322.665 137.083 325.381 135.186L338.435 126.123L357.084 153.016L345.11 161.326C342.492 163.125 340.006 163.878 337.65 163.518C335.294 163.158 333.364 161.948 331.892 159.821C330.027 157.138 329.732 154.456 330.943 151.806ZM342.754 157.891L351.195 152.035L345.535 143.855L337.094 149.712C333.986 151.871 333.397 154.357 335.327 157.138C336.21 158.382 337.29 159.101 338.566 159.232C339.842 159.363 341.249 158.905 342.754 157.891ZM327.769 138.621C326.199 139.7 325.25 140.944 324.923 142.252C324.596 143.594 324.923 144.935 325.872 146.309C326.755 147.552 327.867 148.272 329.209 148.403C330.55 148.534 332.022 148.076 333.593 146.996L343.114 140.387L337.29 132.012L327.769 138.621Z" fill="#4C4C4C"/>
<path d="M331.691 180.726C331.822 179.876 332.247 179.189 332.934 178.665C333.621 178.142 334.406 177.945 335.257 178.076C336.108 178.207 336.795 178.632 337.318 179.32C337.842 180.007 338.038 180.792 337.907 181.642C337.776 182.493 337.351 183.18 336.664 183.704C335.977 184.227 335.191 184.423 334.341 184.292C333.49 184.162 332.803 183.736 332.28 183.049C331.756 182.362 331.56 181.577 331.691 180.726ZM310.981 145.556L330.513 171.827L327.045 174.412L307.513 148.173L310.981 145.556Z" fill="#4C4C4C"/>
<path d="M301.366 194.402L298.781 191.13L307.877 183.932L290.177 161.554L293.579 158.871L311.279 181.249L320.375 174.052L322.959 177.323L301.366 194.402Z" fill="#4C4C4C"/>
<path d="M270.352 199.605C271.727 198.394 273.33 197.838 275.129 197.936C276.961 198.034 278.466 198.787 279.677 200.161C280.855 201.502 281.411 203.073 281.28 204.872C281.149 206.672 280.397 208.177 279.055 209.387C277.714 210.565 276.143 211.121 274.377 211.023C272.61 210.925 271.105 210.205 269.927 208.864C268.717 207.49 268.16 205.919 268.226 204.12C268.291 202.32 269.011 200.782 270.352 199.605Z" fill="#4C4C4C"/>
<path d="M234.129 244.589C231.871 245.505 229.614 245.734 227.291 245.342C224.968 244.949 222.939 243.837 221.173 242.103C218.653 239.616 217.377 236.607 217.377 233.106C217.345 229.572 218.588 226.563 221.075 224.043L235.078 209.844L267.664 242.005L254.708 255.124C252.32 257.545 249.408 258.756 246.005 258.756C242.603 258.756 239.691 257.578 237.302 255.222C234.26 252.278 233.213 248.712 234.129 244.589ZM251.633 252.114L261.382 242.234L250.029 231.012L240.28 240.892C238.775 242.397 238.055 244.262 238.088 246.422C238.12 248.581 238.938 250.446 240.541 252.016C242.079 253.554 243.944 254.339 246.136 254.372C248.295 254.404 250.128 253.652 251.633 252.114ZM224.117 227.086C222.514 228.689 221.762 230.652 221.794 232.942C221.827 235.232 222.71 237.195 224.379 238.831C226.015 240.467 228.011 241.285 230.301 241.318C232.591 241.35 234.554 240.565 236.157 238.929L246.954 227.969L234.947 216.126L224.117 227.086Z" fill="#4C4C4C"/>
<path d="M215.02 279.008L212.174 282.247L187.636 260.588L190.482 257.349L194.31 260.719C192.969 256.303 193.95 252.246 197.189 248.581C199.807 245.604 202.784 244.067 206.121 243.936C209.458 243.805 212.665 245.113 215.74 247.829L230.79 261.145L227.944 264.384L212.894 251.068C210.702 249.138 208.477 248.222 206.252 248.32C204.027 248.418 201.966 249.53 200.101 251.657C198.007 254.012 197.091 256.564 197.255 259.378C197.451 262.159 199.087 264.94 202.195 267.655L215.02 279.008Z" fill="#4C4C4C"/>
<path d="M166.994 292.847C166.471 288.201 167.714 283.98 170.691 280.218C173.669 276.455 177.497 274.296 182.142 273.707C186.788 273.151 191.009 274.361 194.804 277.371C198.599 280.382 200.759 284.209 201.249 288.855C201.74 293.501 200.53 297.722 197.552 301.484C194.575 305.247 190.747 307.406 186.101 307.995C181.455 308.551 177.235 307.341 173.44 304.331C169.644 301.321 167.485 297.493 166.994 292.847ZM182.601 277.96C179.1 278.353 176.221 279.956 173.963 282.803C171.706 285.649 170.79 288.823 171.215 292.323C171.64 295.824 173.276 298.703 176.122 300.961C178.969 303.218 182.142 304.134 185.643 303.742C189.144 303.349 192.023 301.746 194.281 298.9C196.538 296.053 197.454 292.88 197.029 289.379C196.604 285.878 194.968 282.999 192.121 280.741C189.275 278.484 186.101 277.568 182.601 277.96Z" fill="#4C4C4C"/>
<path d="M173.929 333.121C171.639 336.36 168.825 338.224 165.553 338.682C162.249 339.141 158.944 338.192 155.575 335.836L139.183 324.222L141.67 320.688L158.061 332.303C160.449 334.004 162.74 334.658 164.964 334.331C167.189 334.004 169.087 332.663 170.723 330.373C172.522 327.821 173.209 325.138 172.719 322.39C172.228 319.642 170.297 317.057 166.927 314.669L152.924 304.755L155.411 301.222L182.108 320.132L179.622 323.666L175.467 320.721C177.266 325.007 176.775 329.129 173.929 333.121Z" fill="#4C4C4C"/>
<path d="M138.137 387.66L135.912 391.357L108.92 375.26C104.863 372.839 102.507 369.567 101.853 365.412C101.199 361.257 101.984 357.233 104.307 353.373C108.233 346.764 113.173 343.689 119.095 344.147L118.997 348.498C114.58 348.138 110.883 350.494 107.873 355.499C105.943 358.738 105.288 361.781 105.877 364.627C106.466 367.506 108.233 369.796 111.112 371.498L115.496 374.115C112.911 369.077 113.108 364.071 116.085 359.065C118.473 355.041 121.941 352.489 126.456 351.344C131.004 350.199 135.323 350.886 139.445 353.34C143.568 355.794 146.218 359.294 147.363 363.809C148.508 368.324 147.919 372.61 145.531 376.601C142.553 381.574 138.235 384.126 132.575 384.257L138.137 387.66ZM127.503 355.63C124.068 356.481 121.418 358.476 119.586 361.584C117.721 364.693 117.263 367.964 118.114 371.367C118.997 374.769 120.993 377.419 124.101 379.284C127.209 381.149 130.481 381.64 133.916 380.789C137.351 379.939 139.969 377.943 141.834 374.835C143.699 371.727 144.157 368.455 143.306 365.052C142.423 361.617 140.427 359 137.319 357.135C134.178 355.27 130.906 354.78 127.503 355.63Z" fill="#4C4C4C"/>
<path d="M136.528 406.896C136.266 406.078 136.364 405.26 136.79 404.508C137.215 403.755 137.837 403.232 138.655 403.003C139.473 402.741 140.29 402.839 141.043 403.265C141.795 403.69 142.319 404.311 142.548 405.129C142.81 405.947 142.712 406.765 142.286 407.518C141.861 408.27 141.239 408.794 140.421 409.023C139.603 409.252 138.786 409.186 138.033 408.761C137.281 408.336 136.79 407.714 136.528 406.896ZM102.993 383.667L131.719 399.306L129.657 403.101L100.931 387.462L102.993 383.667Z" fill="#4C4C4C"/>
<path d="M87.5227 422.895C86.0504 418.446 86.3776 414.061 88.5042 409.775C90.6308 405.489 93.9353 402.578 98.3522 401.04C102.769 399.502 107.186 399.829 111.505 401.989C115.856 404.148 118.735 407.453 120.207 411.902C121.68 416.352 121.353 420.736 119.226 425.022C117.099 429.308 113.827 432.22 109.378 433.757C104.928 435.295 100.544 434.968 96.2256 432.809C91.8742 430.649 88.995 427.345 87.5227 422.895ZM99.6936 405.064C96.3237 406.177 93.8699 408.369 92.2668 411.608C90.6636 414.847 90.4345 418.151 91.5797 421.488C92.7248 424.825 94.9169 427.312 98.1559 428.915C101.395 430.518 104.699 430.78 108.037 429.668C111.374 428.555 113.86 426.363 115.463 423.124C117.067 419.885 117.296 416.581 116.15 413.244C115.005 409.906 112.813 407.42 109.574 405.817C106.368 404.214 103.063 403.952 99.6936 405.064Z" fill="#4C4C4C"/>
<path d="M101.429 448.217C104.243 451.652 104.668 455.611 102.672 460.093L98.8445 458.392C100.055 455.676 100.251 453.059 99.4661 450.572C98.6809 448.086 96.5542 446.057 93.1189 444.552L76.4985 437.191L78.2652 433.232L108.169 446.515L106.402 450.474L101.429 448.217Z" fill="#4C4C4C"/>
<path d="M94.9801 479.658C93.5078 483.355 91.2503 485.809 88.1421 487.052C85.034 488.296 81.5986 488.165 77.7707 486.66L59.0891 479.266L60.6922 475.241L79.3739 482.635C82.0894 483.715 84.4777 483.813 86.5717 482.995C88.6328 482.145 90.2033 480.411 91.2502 477.761C92.3953 474.849 92.4281 472.1 91.283 469.548C90.1706 466.996 87.6841 464.935 83.8234 463.43L67.89 457.116L69.4932 453.092L99.9204 465.132L98.3172 469.156L93.5732 467.291C96.2888 470.988 96.7795 475.11 94.9801 479.658Z" fill="#4C4C4C"/>
<path d="M50.9456 515.875C48.8844 511.654 48.59 507.27 50.1277 502.723C51.6327 498.175 54.5118 494.838 58.6669 492.711C62.8547 490.584 67.2389 490.29 71.8193 491.828C76.3998 493.365 79.7369 496.245 81.7981 500.432C83.8593 504.62 84.1538 509.037 82.616 513.585C81.111 518.133 78.2319 521.47 74.0767 523.596C69.8889 525.723 65.5048 526.017 60.9244 524.48C56.3439 522.942 53.0068 520.096 50.9456 515.875ZM60.5645 496.572C57.391 498.142 55.2316 500.629 54.0865 504.064C52.9414 507.499 53.1704 510.804 54.7408 513.945C56.3113 517.086 58.8305 519.245 62.2658 520.39C65.7011 521.535 69.0056 521.339 72.1792 519.768C75.3528 518.198 77.5122 515.711 78.6573 512.276C79.8024 508.841 79.5733 505.536 78.0029 502.395C76.4324 499.255 73.9132 497.095 70.4779 495.95C67.0426 494.805 63.7381 495.001 60.5645 496.572Z" fill="#4C4C4C"/>
<path d="M53.0051 553.073C53.4632 551.307 54.4774 549.965 56.0478 549.049C57.6183 548.133 59.2869 547.904 61.0536 548.362C62.7876 548.82 64.0963 549.834 64.9796 551.405C65.863 552.975 66.0921 554.644 65.634 556.411C65.176 558.145 64.1944 559.453 62.624 560.369C61.0863 561.286 59.4504 561.482 57.7164 561.057C55.9496 560.598 54.6082 559.584 53.6594 558.047C52.8088 556.443 52.5798 554.807 53.0051 553.073Z" fill="#4C4C4C"/>
<path d="M69.4298 614.974L65.2092 614.124L69.2989 593.577L28.5985 585.496L29.4819 581.014L74.4028 589.946L69.4298 614.974Z" fill="#4C4C4C"/>
<path d="M52.4149 639.38L51.7605 643.633L19.4357 638.628L20.0901 634.374L26.4373 635.356C22.1513 631.659 20.45 626.915 21.3333 621.189C22.0531 616.576 24.2779 612.879 28.0731 610.131C31.8356 607.382 36.1215 606.368 40.8655 607.088C45.6096 607.808 49.3721 610.065 52.1531 613.828C54.9341 617.59 55.9482 621.778 55.2612 626.391C54.3778 632.117 51.3351 636.108 46.133 638.366L52.4149 639.38ZM30.5269 613.697C27.6805 615.758 25.9792 618.604 25.423 622.171C24.8668 625.737 25.6519 628.976 27.7458 631.79C29.8397 634.636 32.6863 636.337 36.2525 636.861C39.8187 637.384 43.0575 636.664 45.9039 634.571C48.7504 632.509 50.4846 629.663 51.0081 626.097C51.5643 622.531 50.779 619.324 48.6851 616.478C46.5911 613.631 43.7446 611.93 40.1784 611.374C36.6122 610.818 33.3733 611.636 30.5269 613.697Z" fill="#4C4C4C"/>
<path d="M47.6414 684.398L15.0548 681.322L15.4474 677.036L41.4578 679.49L24.0196 666.338L24.0521 665.814L43.65 656.163L17.6396 653.709L18.065 649.423L50.6514 652.498L50.1935 657.439L31.3155 666.763L48.1323 679.457L47.6414 684.398Z" fill="#4C4C4C"/>
<path d="M46.0376 721.4L45.8741 725.718L13.1892 724.541L13.353 720.222L19.7655 720.451C15.0869 717.277 12.8294 712.795 13.0584 706.971C13.222 702.293 15.0216 698.399 18.4569 695.226C21.8922 692.052 26.0145 690.547 30.7912 690.743C35.568 690.94 39.5923 692.706 42.7659 696.109C45.9722 699.512 47.4772 703.569 47.3137 708.215C47.1174 714.006 44.5326 718.324 39.6577 721.171L46.0376 721.4ZM21.3033 698.432C18.7186 700.82 17.3445 703.83 17.2136 707.462C17.0827 711.094 18.2278 714.169 20.6489 716.754C23.07 719.338 26.08 720.68 29.7117 720.811C33.3433 720.942 36.4514 719.797 39.0361 717.408C41.6207 715.02 42.9949 712.01 43.1257 708.378C43.2566 704.746 42.1115 701.671 39.6905 699.086C37.2694 696.502 34.2593 695.16 30.6277 695.029C26.996 694.899 23.888 696.044 21.3033 698.432Z" fill="#4C4C4C"/>
<path d="M46.982 752.153C47.0802 756.832 45.5097 760.824 42.2707 764.193C39.0317 767.563 35.0074 769.297 30.198 769.396C25.3885 769.494 21.2988 767.956 17.9289 764.717C14.559 761.478 12.7924 757.552 12.6942 752.873C12.5634 747.082 14.8862 742.6 19.5975 739.492L0.097903 739.917L-0.000145818 735.598L45.8042 734.617L45.9023 738.936L39.4898 739.067C44.3647 742.011 46.8511 746.362 46.982 752.153ZM20.4482 743.222C17.9944 745.774 16.8165 748.849 16.8819 752.448C16.9474 756.047 18.2889 759.09 20.8408 761.511C23.3928 763.932 26.501 765.11 30.0999 765.044C33.7315 764.979 36.7414 763.67 39.1952 761.118C41.649 758.566 42.827 755.491 42.7615 751.892C42.6961 748.26 41.3546 745.25 38.8026 742.829C36.2507 740.408 33.1425 739.23 29.5436 739.296C25.9447 739.394 22.902 740.702 20.4482 743.222Z" fill="#4C4C4C"/>
<path d="M20.5827 804.239L20.9427 808.819L8.01932 809.801L7.69202 805.482L16.4277 804.828L14.3993 778.196L5.66357 778.85L5.33647 774.532L18.2599 773.55L18.5542 777.542C21.6297 779.537 25.8176 780.323 31.1506 779.93L47.2802 778.687L49.0469 802.047L20.5827 804.239ZM18.9468 782.776L20.2556 799.953L44.5319 798.088L43.4196 783.333L31.4776 784.249C26.4719 784.641 22.284 784.151 18.9468 782.776Z" fill="#4C4C4C"/>
<path d="M22.7446 855.146L22.0575 849.944L35.8969 834.6L20.2581 836.726L19.6692 832.44L35.308 830.314L17.9023 819.19L17.2154 814.021L36.0279 826.257L49.7037 810.291L50.3909 815.46L37.6965 829.987L52.092 828.024L52.681 832.309L38.2854 834.272L54.3823 844.905L55.0693 850.107L37.631 838.329L22.7446 855.146Z" fill="#4C4C4C"/>
<path d="M32.9503 886.064C29.0897 883.413 26.7013 879.716 25.7852 875.005C24.8691 870.294 25.7197 865.975 28.3371 862.082C30.9218 858.188 34.6188 855.767 39.3628 854.851C44.1069 853.935 48.4256 854.818 52.2862 857.469C56.1469 860.119 58.5353 863.816 59.4514 868.527C60.3674 873.238 59.5168 877.557 56.8994 881.45C54.282 885.344 50.6178 887.765 45.8738 888.681C41.1297 889.597 36.811 888.714 32.9503 886.064ZM31.8706 864.536C29.8749 867.447 29.2206 870.686 29.9076 874.253C30.5947 877.819 32.3941 880.567 35.3386 882.53C38.2832 884.493 41.5223 885.147 45.0558 884.46C48.622 883.773 51.3702 881.974 53.366 879.062C55.3617 876.15 56.0161 872.911 55.329 869.345C54.642 865.779 52.8425 863.031 49.8979 861.067C46.9534 859.104 43.7144 858.45 40.1482 859.137C36.6147 859.824 33.8664 861.624 31.8706 864.536Z" fill="#4C4C4C"/>
<path d="M34.5548 914.591C33.4097 910.01 33.9659 905.823 36.2234 902.027C38.4809 898.232 42.0144 895.713 46.8566 894.502C52.2877 893.161 56.6391 892.899 59.9436 893.783C63.248 894.666 66.6834 897.251 70.2823 901.569C70.9693 902.387 71.8526 903.467 72.8669 904.874C73.8811 906.281 74.6991 907.295 75.2553 907.982C75.8442 908.669 76.5312 909.389 77.3819 910.174C78.2325 910.959 79.0832 911.483 79.9666 911.744C80.85 912.006 81.8315 912.104 82.9111 911.941L81.8315 915.736C80.7845 915.834 79.7375 915.736 78.7233 915.442C77.7091 915.147 76.8584 914.82 76.1714 914.427C75.4843 914.035 74.6664 913.348 73.7503 912.399C72.8015 911.45 72.1144 910.698 71.6891 910.141C71.2638 909.585 70.544 908.636 69.5297 907.295C68.5155 905.953 67.8284 905.037 67.5013 904.612C65.4728 901.962 63.6078 900.13 61.9065 899.083C60.1725 898.036 58.144 897.48 55.7884 897.447C58.0459 898.396 59.9108 899.901 61.3831 901.897C62.8554 903.892 63.8369 905.953 64.3931 908.047C65.44 912.268 64.9493 916.129 62.8553 919.597C60.7614 923.065 57.5879 925.322 53.2692 926.402C48.9832 927.482 45.0898 926.893 41.5236 924.668C38.0229 922.443 35.6999 919.073 34.5548 914.591ZM38.7427 913.544C39.5607 916.848 41.2619 919.302 43.8139 920.938C46.3658 922.574 49.1794 922.999 52.2548 922.214C55.3957 921.429 57.7188 919.793 59.2238 917.274C60.7288 914.754 61.0559 911.843 60.238 908.505C59.4855 905.495 57.8496 903.009 55.363 901.013C52.8765 899.017 50.063 898.428 46.9221 899.214C43.7158 900.032 41.3273 901.798 39.8223 904.547C38.3173 907.295 37.9575 910.272 38.7427 913.544Z" fill="#4C4C4C"/>
<path d="M81.0136 954.899L82.2896 959.021L51.0444 968.738L49.7685 964.616L55.8866 962.718C50.4228 961.279 46.8238 957.778 45.0898 952.249C43.7157 947.799 44.1084 943.514 46.3005 939.359C48.4926 935.236 51.8624 932.455 56.4428 931.016C61.0233 929.576 65.3747 929.969 69.5298 932.128C73.6849 934.288 76.4332 937.592 77.84 942.041C79.5741 947.57 78.5925 952.511 74.8954 956.797L81.0136 954.899ZM50.0629 941.42C48.3943 944.528 48.0998 947.832 49.1795 951.267C50.2591 954.735 52.3531 957.255 55.494 958.89C58.6349 960.526 61.9067 960.788 65.3747 959.708C68.8428 958.629 71.3947 956.535 73.0306 953.427C74.6664 950.319 74.9936 947.014 73.9139 943.546C72.8342 940.078 70.7403 937.559 67.5995 935.923C64.4586 934.288 61.1868 934.026 57.7188 935.105C54.2834 936.218 51.7315 938.312 50.0629 941.42Z" fill="#4C4C4C"/>
<path d="M77.6071 993.569C76.9527 991.868 76.9854 990.167 77.7052 988.498C78.425 986.83 79.6683 985.684 81.3696 984.997C83.0381 984.343 84.7067 984.408 86.3426 985.161C87.9784 985.913 89.1236 987.124 89.8107 988.825C90.4651 990.494 90.3996 992.162 89.6798 993.798C88.96 995.434 87.7495 996.579 86.0809 997.234C84.3796 997.888 82.6782 997.855 81.0424 997.136C79.4065 996.416 78.2287 995.238 77.6071 993.569Z" fill="#4C4C4C"/>
<path d="M80.1944 1043.5C78.4277 1039.7 77.8387 1036.04 78.3949 1032.47C78.9511 1028.94 80.5543 1025.89 83.2371 1023.34L86.9669 1025.96C84.7421 1027.89 83.368 1030.21 82.8445 1032.9C82.3211 1035.58 82.8118 1038.52 84.2841 1041.66C85.7237 1044.74 87.4904 1046.83 89.6825 1047.94C91.8418 1049.02 94.0666 1049.06 96.3241 1048.01C98.5162 1047 99.7921 1045.46 100.152 1043.36C100.512 1041.27 100.479 1038.13 99.9884 1033.94C99.4322 1028.97 99.2359 1025.6 99.4649 1023.8C99.8903 1019.74 101.919 1016.9 105.518 1015.23C109.051 1013.59 112.388 1013.53 115.562 1015.06C118.736 1016.57 121.157 1019.12 122.825 1022.75C124.33 1025.99 124.788 1029.2 124.199 1032.34C123.61 1035.48 122.269 1038.26 120.208 1040.62L116.642 1038.03C120.339 1034.01 121.091 1029.53 118.801 1024.62C117.623 1022.03 116.02 1020.27 114.024 1019.25C112.028 1018.27 109.902 1018.27 107.644 1019.32C105.583 1020.27 104.373 1021.71 104.013 1023.6C103.653 1025.5 103.685 1028.35 104.144 1032.11C104.34 1033.84 104.471 1035.12 104.536 1035.84C104.634 1036.59 104.7 1037.7 104.798 1039.18C104.863 1040.65 104.863 1041.76 104.765 1042.55C104.667 1043.33 104.471 1044.28 104.209 1045.43C103.947 1046.57 103.587 1047.49 103.097 1048.17C102.606 1048.86 101.984 1049.55 101.199 1050.27C100.414 1050.99 99.4649 1051.61 98.418 1052.1C94.8845 1053.74 91.482 1053.74 88.1775 1052.17C84.7422 1050.59 82.1248 1047.72 80.1944 1043.5Z" fill="#4C4C4C"/>
<path d="M128.061 1062.86C129.925 1066.36 130.318 1069.7 129.238 1072.87C128.159 1076.05 125.803 1078.57 122.204 1080.5L104.439 1089.89L102.41 1086.06L120.176 1076.67C122.76 1075.3 124.396 1073.56 125.116 1071.44C125.803 1069.31 125.509 1066.99 124.2 1064.5C122.728 1061.72 120.666 1059.92 117.984 1059.13C115.301 1058.32 112.127 1058.9 108.463 1060.84L93.3147 1068.85L91.2862 1065.02L131.79 1043.63L133.819 1047.45L117.722 1055.96C122.335 1056.22 125.803 1058.54 128.061 1062.86Z" fill="#4C4C4C"/>
<path d="M151.843 1105.82L154.067 1109.52L126.029 1126.37L123.804 1122.67L129.3 1119.36C123.64 1119.27 119.321 1116.71 116.311 1111.74C113.89 1107.75 113.269 1103.46 114.414 1098.95C115.559 1094.4 118.176 1090.9 122.299 1088.45C126.421 1085.99 130.74 1085.31 135.288 1086.42C139.835 1087.53 143.303 1090.08 145.692 1094.07C148.669 1099.05 148.898 1104.05 146.346 1109.12L151.843 1105.82ZM118.569 1100.09C117.686 1103.53 118.209 1106.77 120.074 1109.88C121.939 1112.98 124.589 1114.95 128.024 1115.8C131.46 1116.65 134.731 1116.13 137.84 1114.26C140.948 1112.4 142.944 1109.75 143.794 1106.34C144.678 1102.91 144.154 1099.67 142.289 1096.56C140.424 1093.45 137.774 1091.49 134.339 1090.64C130.903 1089.79 127.632 1090.31 124.524 1092.18C121.448 1094.01 119.452 1096.66 118.569 1100.09Z" fill="#4C4C4C"/>
<path d="M131.688 1134.87L171.636 1108.67L173.992 1112.26L134.044 1138.47L131.688 1134.87Z" fill="#4C4C4C"/>
<path d="M158.948 1167.07C154.335 1166.25 150.638 1163.89 147.857 1160C145.076 1156.07 144.062 1151.82 144.814 1147.17C145.567 1142.53 147.922 1138.83 151.848 1136.02C155.807 1133.2 160.06 1132.22 164.706 1133.04C169.319 1133.86 173.017 1136.21 175.797 1140.11C178.578 1144.03 179.593 1148.29 178.84 1152.93C178.088 1157.58 175.732 1161.28 171.806 1164.09C167.847 1166.9 163.594 1167.88 158.948 1167.07ZM149.035 1147.93C148.446 1151.39 149.165 1154.63 151.292 1157.58C153.419 1160.52 156.2 1162.29 159.668 1162.88C163.136 1163.47 166.375 1162.68 169.319 1160.59C172.264 1158.49 174.031 1155.71 174.652 1152.21C175.274 1148.71 174.521 1145.51 172.395 1142.56C170.301 1139.62 167.52 1137.85 164.019 1137.26C160.518 1136.67 157.312 1137.46 154.368 1139.55C151.423 1141.64 149.623 1144.46 149.035 1147.93Z" fill="#4C4C4C"/>
<path d="M211.817 1186.66C214.14 1189.51 215.089 1192.52 214.697 1195.76C214.304 1199 212.537 1201.88 209.429 1204.43L193.627 1217.35L190.878 1214.01L206.681 1201.09C208.873 1199.29 210.116 1197.33 210.378 1195.23C210.64 1193.11 210.018 1191.14 208.513 1189.28C206.812 1187.19 204.718 1186.07 202.231 1185.91C199.778 1185.75 197.062 1186.89 194.085 1189.31L180.049 1200.8L177.333 1197.46L193.136 1184.54C195.361 1182.7 196.637 1180.77 196.964 1178.75C197.291 1176.72 196.702 1174.79 195.197 1172.95C193.529 1170.93 191.435 1169.78 188.85 1169.52C186.265 1169.26 183.517 1170.34 180.572 1172.73L166.537 1184.21L163.788 1180.87L189.112 1160.16L191.86 1163.5L188.163 1166.51C192.514 1165.99 196.08 1167.39 198.796 1170.73C201.773 1174.36 202.329 1178.19 200.497 1182.21C205.045 1181.56 208.84 1183.03 211.817 1186.66Z" fill="#4C4C4C"/>
<path d="M227.456 1229.59C226.18 1228.24 225.591 1226.67 225.624 1224.87C225.657 1223.04 226.344 1221.51 227.685 1220.26C228.994 1219.02 230.532 1218.43 232.331 1218.5C234.131 1218.56 235.668 1219.25 236.944 1220.59C238.188 1221.9 238.777 1223.44 238.744 1225.2C238.711 1227 238.024 1228.51 236.748 1229.75C235.407 1231.03 233.869 1231.65 232.037 1231.61C230.205 1231.55 228.667 1230.89 227.456 1229.59Z" fill="#4C4C4C"/>
<path d="M273.291 1249.67C277.577 1250 283.171 1250.72 286.967 1251.77L286.999 1251.74C282.91 1248.86 274.272 1241.43 268.907 1236.52C269.725 1235.61 271.197 1234 271.917 1233.09C272.931 1234.1 291.351 1251.21 301.035 1256.48L298.189 1260.44C291.776 1255.92 279.801 1254.26 274.469 1253.96L273.291 1249.67ZM273.029 1293.87C268.056 1290.8 262.101 1286.06 257.227 1281.67C253.137 1278.01 249.8 1274.54 248.262 1272.45C243.551 1265.84 244.369 1259.85 248.229 1255.6C251.599 1251.87 257.063 1250 262.559 1249.64L264.064 1253.63C258.797 1253.99 254.446 1255.73 251.992 1258.44C249.44 1261.26 249.014 1265.54 252.384 1270.22C253.726 1272.15 256.441 1274.93 259.778 1277.94C264.49 1282.2 270.477 1286.87 275.941 1290.11L273.029 1293.87Z" fill="#4C4C4C"/>
<path d="M278.594 1301.69C290.863 1293.58 311.278 1280.04 317.527 1276.04C320.668 1273.98 325.02 1271.07 326.394 1270.02L330.909 1275.75C330.091 1276.27 329.175 1275.98 328.128 1275.19C319.817 1280.13 306.142 1288.97 300.252 1292.7L300.318 1292.73C306.24 1291.32 312.947 1292.24 316.611 1295.02C321.126 1298.45 320.995 1303.2 317.135 1307.94L312.26 1314.03C309.25 1317.89 309.675 1321.62 313.078 1324.2C317.756 1327.77 326.165 1325.71 335.391 1318.58C335.882 1320.11 336.602 1321.72 337.321 1323.09C326.884 1330.84 316.971 1333.17 310.068 1327.9C304.538 1323.71 303.491 1317.63 307.548 1312.33C308.301 1311.35 312.096 1306.67 312.947 1305.59C315.433 1302.32 315.401 1299.57 313.11 1297.8C307.123 1293.25 294.461 1297.34 290.601 1299.73C288.474 1301.01 284.81 1303.46 281.505 1305.72L278.594 1301.69Z" fill="#4C4C4C"/>
<path d="M377.069 1318.81C384.333 1323.12 394.41 1328.49 402.556 1331.83L400.462 1335.92C392.872 1332.78 381.257 1326.53 374.779 1322.7L377.069 1318.81ZM381.552 1368.76C379.49 1367.62 377.396 1366.41 375.335 1365.1C371.409 1362.65 367.81 1360.09 365.389 1358.03C359.206 1352.77 358.388 1347.01 361.169 1342.59C363.557 1338.76 367.679 1336.87 373.078 1335.16L375.728 1338.96C371.147 1340.1 367.549 1341.54 365.553 1344.72C361.529 1351.16 370.951 1357.05 376.742 1360.65C379.065 1362.12 381.65 1363.56 384.071 1364.84L381.552 1368.76ZM371.605 1306.11C371.049 1306.6 370.297 1306.6 369.217 1305.85C361.627 1313.67 354.396 1322.99 350.666 1328.98C348.082 1333.14 345.595 1337.45 344.515 1340.4C347.264 1338.34 353.284 1334.02 355.279 1332.55L356.097 1336.44C350.306 1340.63 346.675 1342.75 344.352 1344.75C343.501 1345.5 342.749 1346.29 342.291 1347.07C341.898 1347.69 341.669 1348.32 341.505 1348.97L337.121 1347.24C338.626 1340.86 341.996 1334.02 346.609 1326.63C351.157 1319.36 358.682 1309.94 366.436 1301.47L371.605 1306.11Z" fill="#4C4C4C"/>
<path d="M451.83 1360.85C443.258 1358.92 432.101 1354.76 425.034 1351.46C420.552 1358.36 416.462 1363.82 414.434 1365.52C420.847 1364.18 429.19 1365.26 434.13 1367.78C442.833 1372.2 445.745 1379.56 441.753 1387.44C435.831 1399.06 422.123 1397 402.95 1387.8C403.277 1386.56 403.768 1384.63 403.735 1383.36C420.65 1391.53 432.952 1394.18 437.434 1385.38C440.117 1380.15 438.449 1374.75 431.676 1371.28C426.474 1368.63 415.972 1367.26 409.167 1371.05L406.058 1367.06C409.003 1365.92 415.154 1358.56 420.912 1349.43L407.269 1342.49L409.33 1338.4C411.751 1339.71 418.916 1343.38 423.3 1345.6C425.231 1342.39 427.259 1338.73 429.026 1335.23L434.915 1338.96C434.293 1339.87 433.508 1339.71 432.396 1339.29C430.793 1342.13 429.091 1345.01 427.488 1347.66C433.77 1350.64 445.156 1354.76 453.204 1356.3L451.83 1360.85Z" fill="#4C4C4C"/>
<path d="M480.686 1379.13C485.757 1381.23 490.828 1383.36 496.096 1385.02C497.928 1379.69 499.564 1375.14 501.233 1370.6L507.285 1373.25C506.991 1373.83 506.238 1374.1 505.191 1373.9C503.686 1377.83 502.247 1381.82 500.513 1386.46C505.519 1387.9 509.739 1388.59 513.403 1388.79L512.258 1393.27C508.987 1393.01 504.439 1392.19 499.106 1390.55C496.652 1397.39 494.1 1404.62 492.726 1408.58C496.587 1412.31 500.022 1417.15 502.018 1421.24L498.092 1424.19C496.587 1420.68 494.067 1416.6 491.025 1413.32C488.898 1418.46 485.626 1423.86 476.498 1420.19C469.398 1417.35 465.996 1412.05 468.155 1406.71C470.642 1400.53 478.003 1400.3 483.565 1402.53C485.463 1403.28 487.36 1404.33 489.029 1405.64C490.37 1401.74 492.562 1395.2 494.656 1389.15C492.726 1388.52 490.141 1387.54 488.375 1386.86L479.148 1383.16L480.686 1379.13ZM487.753 1409.69C486.052 1408.32 484.187 1407.01 482.191 1406.19C478.494 1404.72 473.521 1404.26 471.983 1408.09C470.609 1411.49 473.586 1414.66 478.036 1416.43C482.551 1418.23 485.037 1416.69 487 1411.85L487.753 1409.69ZM450.913 1408.74C450.782 1403.61 453.661 1394.28 456.868 1386.3C460.107 1378.22 465.44 1368.57 471.492 1359.24L476.923 1362.74C476.564 1363.3 475.778 1363.5 474.895 1363.2C469.366 1370.66 463.706 1380.93 460.892 1387.97C459.06 1392.58 457.26 1397.23 456.835 1399.68C459.616 1396.57 464.393 1391.7 466.814 1389.37L468.515 1393.01C464.851 1396.34 456.9 1403.87 455.755 1406.71C455.428 1407.57 455.232 1408.55 455.199 1409.89L450.913 1408.74Z" fill="#4C4C4C"/>
<path d="M536.377 1420.59C534.61 1420.06 533.334 1418.98 532.484 1417.38C531.633 1415.78 531.469 1414.11 531.993 1412.34C532.516 1410.64 533.563 1409.36 535.166 1408.51C536.77 1407.7 538.438 1407.53 540.205 1408.06C541.906 1408.58 543.182 1409.63 544.033 1411.2C544.883 1412.77 545.014 1414.44 544.491 1416.14C543.967 1417.9 542.888 1419.21 541.317 1420.06C539.747 1420.95 538.078 1421.11 536.377 1420.59Z" fill="#4C4C4C"/>
<path d="M593.663 1428.05C595.593 1429.49 597 1431.32 597.851 1433.51C598.701 1435.7 598.832 1438.02 598.276 1440.45C597.458 1443.88 595.56 1446.53 592.583 1448.4C589.606 1450.26 586.367 1450.78 582.931 1449.97L563.497 1445.42L573.967 1400.83L591.929 1405.05C595.233 1405.83 597.785 1407.66 599.585 1410.58C601.351 1413.49 601.875 1416.56 601.122 1419.83C600.108 1423.96 597.622 1426.7 593.663 1428.05ZM590.947 1409.2L577.435 1406.03L573.803 1421.57L587.316 1424.74C589.41 1425.23 591.34 1424.91 593.172 1423.73C595.004 1422.55 596.149 1420.91 596.673 1418.72C597.164 1416.6 596.869 1414.6 595.757 1412.73C594.644 1410.87 593.008 1409.69 590.947 1409.2ZM583.913 1445.71C586.105 1446.24 588.199 1445.88 590.097 1444.63C592.027 1443.39 593.237 1441.66 593.794 1439.37C594.317 1437.11 593.99 1435.01 592.812 1433.02C591.634 1431.02 589.933 1429.78 587.741 1429.29L572.756 1425.79L568.896 1442.21L583.913 1445.71Z" fill="#4C4C4C"/>
<path d="M633.018 1426.41L637.271 1427.16L631.579 1459.39L627.325 1458.63L628.209 1453.6C625.133 1457.03 621.174 1458.34 616.365 1457.49C612.439 1456.8 609.593 1455.07 607.76 1452.29C605.928 1449.51 605.372 1446.1 606.059 1442.05L609.527 1422.25L613.78 1423.01L610.28 1442.8C609.756 1445.68 610.149 1448.03 611.392 1449.9C612.635 1451.76 614.664 1452.94 617.445 1453.43C620.553 1453.99 623.236 1453.43 625.493 1451.83C627.783 1450.23 629.256 1447.38 629.975 1443.29L633.018 1426.41Z" fill="#4C4C4C"/>
<path d="M669.892 1460.17C666.195 1463.05 661.941 1464.2 657.197 1463.61C652.421 1463.02 648.593 1460.93 645.681 1457.23C642.769 1453.56 641.591 1449.31 642.18 1444.5C642.769 1439.69 644.896 1435.86 648.625 1432.98C652.322 1430.11 656.576 1428.96 661.32 1429.55C666.096 1430.14 669.924 1432.26 672.836 1435.93C675.748 1439.59 676.926 1443.85 676.337 1448.66C675.748 1453.47 673.589 1457.29 669.892 1460.17ZM649.018 1454.61C651.177 1457.39 654.056 1459 657.655 1459.45C661.254 1459.91 664.428 1459 667.209 1456.8C669.99 1454.61 671.593 1451.73 672.018 1448.13C672.444 1444.53 671.593 1441.36 669.434 1438.55C667.274 1435.77 664.395 1434.13 660.796 1433.7C657.197 1433.28 654.024 1434.16 651.243 1436.35C648.462 1438.55 646.859 1441.43 646.433 1445.02C646.008 1448.62 646.859 1451.83 649.018 1454.61Z" fill="#4C4C4C"/>
<path d="M700.55 1433.18C704.509 1433.44 707.552 1434.85 709.678 1437.43C711.805 1440.02 712.721 1443.32 712.459 1447.41L711.118 1467.47L706.799 1467.17L708.141 1447.12C708.337 1444.21 707.715 1441.88 706.276 1440.18C704.836 1438.48 702.71 1437.53 699.863 1437.34C696.722 1437.14 694.105 1437.96 692.011 1439.79C689.917 1441.66 688.739 1444.63 688.477 1448.75L687.332 1465.87L683.014 1465.57L685.206 1432.92L689.524 1433.21L689.197 1438.32C691.88 1434.59 695.675 1432.85 700.55 1433.18Z" fill="#4C4C4C"/>
<path d="M765.82 1435.21L770.139 1435.15L770.663 1466.55C770.728 1471.26 769.19 1474.99 766.017 1477.74C762.843 1480.49 758.982 1481.93 754.5 1482C746.812 1482.13 741.609 1479.54 738.861 1474.27L742.624 1472.05C744.652 1475.98 748.578 1477.91 754.435 1477.81C758.197 1477.74 761.109 1476.7 763.236 1474.7C765.362 1472.67 766.409 1469.99 766.344 1466.62L766.246 1461.51C763.301 1466.36 758.95 1468.84 753.159 1468.94C748.48 1469.01 744.489 1467.44 741.151 1464.16C737.814 1460.89 736.08 1456.87 736.015 1452.09C735.949 1447.28 737.52 1443.23 740.759 1439.86C743.998 1436.49 747.957 1434.75 752.635 1434.69C758.426 1434.59 762.876 1436.91 765.951 1441.66L765.82 1435.21ZM744.194 1461.12C746.713 1463.58 749.789 1464.79 753.421 1464.72C757.052 1464.66 760.062 1463.35 762.516 1460.8C764.97 1458.24 766.148 1455.17 766.082 1451.54C766.017 1447.9 764.741 1444.86 762.222 1442.41C759.702 1439.95 756.627 1438.74 752.995 1438.81C749.364 1438.87 746.354 1440.18 743.9 1442.74C741.446 1445.29 740.268 1448.36 740.334 1451.99C740.366 1455.59 741.675 1458.64 744.194 1461.12Z" fill="#4C4C4C"/>
<path d="M780.704 1467.37L779.101 1434.69L783.419 1434.49L785.022 1467.17L780.704 1467.37ZM783.059 1426.64C782.47 1427.29 781.751 1427.62 780.9 1427.65C780.017 1427.69 779.264 1427.42 778.643 1426.83C777.988 1426.25 777.661 1425.53 777.628 1424.64C777.596 1423.76 777.857 1423.01 778.446 1422.38C779.035 1421.76 779.755 1421.4 780.638 1421.37C781.522 1421.34 782.274 1421.6 782.896 1422.19C783.55 1422.78 783.877 1423.5 783.91 1424.38C783.91 1425.23 783.648 1425.98 783.059 1426.64Z" fill="#4C4C4C"/>
<path d="M822.189 1460.17C819.147 1463.74 815.221 1465.73 810.444 1466.16C805.667 1466.59 801.479 1465.28 797.848 1462.3C794.249 1459.32 792.22 1455.4 791.795 1450.59C791.37 1445.78 792.678 1441.56 795.721 1437.99C798.764 1434.42 802.657 1432.43 807.467 1432C812.243 1431.58 816.431 1432.89 820.063 1435.86C823.662 1438.84 825.69 1442.77 826.116 1447.58C826.541 1452.39 825.232 1456.61 822.189 1460.17ZM800.629 1459.03C803.312 1461.32 806.485 1462.3 810.084 1461.97C813.683 1461.65 816.628 1460.14 818.885 1457.42C821.143 1454.71 822.124 1451.54 821.797 1447.94C821.47 1444.34 819.965 1441.39 817.282 1439.1C814.599 1436.81 811.426 1435.83 807.827 1436.16C804.228 1436.49 801.283 1437.99 799.026 1440.71C796.768 1443.42 795.787 1446.6 796.114 1450.19C796.441 1453.79 797.946 1456.74 800.629 1459.03Z" fill="#4C4C4C"/>
<path d="M836.62 1435.14C838.093 1430.96 841.266 1428.53 846.108 1427.91L846.665 1432.07C843.72 1432.46 841.397 1433.64 839.663 1435.6C837.929 1437.6 837.34 1440.44 837.798 1444.14L840.154 1462.17L835.868 1462.72L831.647 1430.27L835.933 1429.71L836.62 1435.14Z" fill="#4C4C4C"/>
<path d="M866.75 1424.32C870.676 1423.63 873.947 1424.32 876.63 1426.31C879.28 1428.31 880.982 1431.32 881.669 1435.38L885.071 1455.17L880.818 1455.89L877.415 1436.1C876.925 1433.22 875.78 1431.12 873.98 1429.78C872.181 1428.44 869.89 1428.01 867.077 1428.5C863.969 1429.03 861.646 1430.43 860.042 1432.73C858.439 1435.02 857.981 1438.19 858.701 1442.28L861.613 1459.16L857.36 1459.88L851.83 1427.62L856.084 1426.9L856.934 1431.94C858.668 1427.69 861.94 1425.13 866.75 1424.32Z" fill="#4C4C4C"/>
<path d="M920.708 1443.06C918.189 1447.02 914.59 1449.54 909.912 1450.59C905.233 1451.67 900.914 1450.95 896.923 1448.49C892.931 1446.04 890.412 1442.44 889.332 1437.7C888.253 1432.99 888.972 1428.63 891.492 1424.67C894.011 1420.72 897.61 1418.2 902.288 1417.15C906.967 1416.07 911.286 1416.79 915.277 1419.24C919.269 1421.7 921.788 1425.3 922.868 1430.04C923.947 1434.78 923.228 1439.1 920.708 1443.06ZM899.213 1444.89C902.19 1446.79 905.462 1447.35 908.996 1446.53C912.529 1445.71 915.212 1443.81 917.077 1440.84C918.942 1437.83 919.465 1434.59 918.68 1431.05C917.862 1427.52 915.964 1424.81 912.987 1422.91C910.01 1421.01 906.738 1420.49 903.205 1421.27C899.671 1422.09 896.988 1423.99 895.123 1426.97C893.258 1429.98 892.735 1433.21 893.52 1436.75C894.338 1440.28 896.236 1443 899.213 1444.89Z" fill="#4C4C4C"/>
<path d="M951.392 1421.99C949.626 1422.52 947.957 1422.35 946.354 1421.47C944.751 1420.62 943.704 1419.28 943.18 1417.54C942.657 1415.84 942.853 1414.17 943.737 1412.6C944.62 1411.03 945.929 1409.99 947.663 1409.46C949.364 1408.94 951.033 1409.14 952.603 1409.99C954.173 1410.84 955.22 1412.11 955.744 1413.85C956.267 1415.61 956.104 1417.28 955.253 1418.89C954.402 1420.49 953.094 1421.47 951.392 1421.99Z" fill="#4C4C4C"/>
<path d="M999.161 1398.04C1001.88 1398.08 1004.2 1398.76 1006.2 1400.11C1008.19 1401.45 1009.63 1403.38 1010.55 1405.9C1011.89 1409.5 1011.63 1412.96 1009.79 1416.24C1007.96 1419.54 1004.79 1422.03 1000.24 1423.69C996.151 1425.2 992.552 1425.49 989.411 1424.55C986.271 1423.6 983.719 1421.93 981.756 1419.51L984.667 1416.07C986.009 1418.03 987.841 1419.44 990.164 1420.29C992.487 1421.14 995.366 1420.91 998.769 1419.67C1002.14 1418.43 1004.43 1416.69 1005.7 1414.5C1006.98 1412.28 1007.18 1409.95 1006.26 1407.5C1005.34 1405.05 1003.77 1403.38 1001.52 1402.46C999.259 1401.55 996.609 1401.64 993.632 1402.76L988.724 1404.56L987.219 1400.5L990.589 1399.26C993.501 1398.18 995.53 1396.61 996.707 1394.48C997.885 1392.38 998.049 1390.16 997.165 1387.8C996.315 1385.51 994.81 1383.94 992.618 1383.09C990.426 1382.24 987.906 1382.37 985.027 1383.42C979.76 1385.38 977.11 1388.92 977.077 1394.02L972.758 1393.24C972.856 1390.23 973.773 1387.48 975.474 1385.06C977.208 1382.6 979.891 1380.71 983.522 1379.36C987.579 1377.86 991.276 1377.79 994.614 1379.13C997.951 1380.48 1000.24 1382.86 1001.48 1386.27C1003.12 1390.62 1002.33 1394.51 999.161 1398.04Z" fill="#4C4C4C"/>
<path d="M1045.98 1399.75L1050.2 1397.95L1055.34 1409.86L1051.38 1411.56L1047.91 1403.51L1023.41 1414.08L1026.87 1422.12L1022.92 1423.83L1017.78 1411.92L1021.44 1410.35C1022.33 1406.78 1021.7 1402.56 1019.61 1397.65L1013.2 1382.8L1034.73 1373.54L1045.98 1399.75ZM1026.19 1408.29L1041.99 1401.48L1032.37 1379.13L1018.79 1384.99L1023.54 1395.98C1025.53 1400.56 1026.42 1404.69 1026.19 1408.29Z" fill="#4C4C4C"/>
<path d="M1059.92 1360.52C1064.1 1358.43 1068.39 1358.13 1072.81 1359.64C1077.22 1361.14 1080.53 1364.02 1082.69 1368.31C1084.85 1372.59 1085.17 1376.98 1083.7 1381.39C1082.23 1385.84 1079.42 1389.08 1075.26 1391.17C1070.06 1393.76 1065.05 1393.6 1060.21 1390.65L1068.95 1408.09L1065.09 1410.02L1044.57 1369.06L1048.43 1367.13L1051.31 1372.85C1051.84 1367.23 1054.71 1363.1 1059.92 1360.52ZM1063.22 1388.3C1066.56 1389.44 1069.86 1389.18 1073.1 1387.58C1076.34 1385.94 1078.5 1383.45 1079.61 1380.12C1080.73 1376.75 1080.46 1373.47 1078.83 1370.24C1077.19 1367 1074.74 1364.8 1071.37 1363.69C1068.03 1362.55 1064.73 1362.81 1061.49 1364.44C1058.25 1366.08 1056.09 1368.57 1054.98 1371.9C1053.86 1375.27 1054.13 1378.55 1055.76 1381.78C1057.36 1384.99 1059.85 1387.18 1063.22 1388.3Z" fill="#4C4C4C"/>
<path d="M1105.75 1336.28L1109.48 1334.12L1125.84 1362.45L1122.11 1364.61L1118.9 1359.05C1118.71 1364.71 1116.09 1368.99 1111.05 1371.87C1106.99 1374.19 1102.74 1374.75 1098.23 1373.54C1093.71 1372.3 1090.28 1369.61 1087.85 1365.46C1085.43 1361.3 1084.84 1356.95 1086.05 1352.44C1087.27 1347.92 1089.88 1344.49 1093.91 1342.16C1098.95 1339.25 1103.95 1339.15 1108.96 1341.8L1105.75 1336.28ZM1099.4 1369.45C1102.81 1370.37 1106.08 1369.94 1109.22 1368.14C1112.36 1366.34 1114.39 1363.72 1115.27 1360.29C1116.15 1356.85 1115.73 1353.62 1113.9 1350.47C1112.1 1347.33 1109.48 1345.31 1106.08 1344.39C1102.67 1343.47 1099.4 1343.9 1096.26 1345.7C1093.12 1347.5 1091.09 1350.11 1090.21 1353.55C1089.33 1356.98 1089.75 1360.22 1091.58 1363.36C1093.42 1366.47 1096 1368.5 1099.4 1369.45Z" fill="#4C4C4C"/>
<path d="M1143.19 1331.37C1146.88 1330.52 1149.8 1331.7 1151.86 1334.87C1153.3 1337.09 1153.75 1339.42 1153.23 1341.84C1152.71 1344.26 1151.04 1346.35 1148.26 1348.15L1134.91 1356.82L1117.08 1329.37L1129.31 1321.42C1132 1319.69 1134.48 1319.03 1136.84 1319.46C1139.19 1319.88 1141.06 1321.16 1142.47 1323.32C1144.27 1326.07 1144.5 1328.75 1143.19 1331.37ZM1145.93 1344.62C1147.54 1343.57 1148.52 1342.39 1148.88 1341.05C1149.24 1339.71 1148.98 1338.37 1148.06 1336.96C1147.24 1335.69 1146.13 1334.93 1144.79 1334.77C1143.45 1334.61 1141.98 1335 1140.34 1336.05L1130.62 1342.36L1136.18 1350.93L1145.93 1344.62ZM1131.57 1324.92L1122.97 1330.52L1128.4 1338.86L1137 1333.27C1140.18 1331.2 1140.86 1328.75 1139 1325.87C1138.18 1324.6 1137.1 1323.88 1135.82 1323.68C1134.55 1323.52 1133.11 1323.94 1131.57 1324.92Z" fill="#4C4C4C"/>
<path d="M1183.23 1318.58C1182.48 1323.19 1180.12 1326.92 1176.26 1329.73C1172.37 1332.55 1168.11 1333.59 1163.47 1332.91C1158.82 1332.19 1155.09 1329.9 1152.25 1325.97C1149.4 1322.04 1148.39 1317.79 1149.14 1313.14C1149.89 1308.53 1152.25 1304.8 1156.11 1301.99C1160 1299.17 1164.25 1298.13 1168.9 1298.81C1173.55 1299.53 1177.27 1301.82 1180.12 1305.75C1182.94 1309.68 1183.98 1313.93 1183.23 1318.58ZM1164.16 1328.65C1167.66 1329.24 1170.86 1328.46 1173.77 1326.33C1176.72 1324.2 1178.45 1321.39 1178.98 1317.92C1179.53 1314.42 1178.71 1311.21 1176.59 1308.3C1174.46 1305.36 1171.65 1303.62 1168.18 1303.03C1164.71 1302.45 1161.47 1303.23 1158.56 1305.36C1155.65 1307.48 1153.88 1310.3 1153.36 1313.77C1152.84 1317.23 1153.62 1320.47 1155.75 1323.39C1157.87 1326.3 1160.65 1328.1 1164.16 1328.65Z" fill="#4C4C4C"/>
<path d="M1203.15 1287.17C1201.74 1288.35 1200.14 1288.84 1198.31 1288.67C1196.51 1288.51 1195 1287.72 1193.83 1286.32C1192.68 1284.94 1192.19 1283.34 1192.39 1281.57C1192.58 1279.81 1193.37 1278.3 1194.78 1277.12C1196.15 1275.98 1197.72 1275.49 1199.52 1275.65C1201.29 1275.82 1202.76 1276.6 1203.9 1277.98C1205.08 1279.38 1205.57 1280.99 1205.44 1282.78C1205.31 1284.55 1204.53 1286.02 1203.15 1287.17Z" fill="#4C4C4C"/>
<path d="M1255.5 1232.01L1257.14 1233.71C1261.06 1237.8 1262.93 1242.64 1262.7 1248.27C1262.47 1253.9 1259.92 1259.06 1255.01 1263.78C1250 1268.59 1244.28 1270.91 1237.83 1270.74C1231.39 1270.58 1225.86 1268.13 1221.28 1263.32C1216.7 1258.51 1214.44 1252.91 1214.54 1246.47C1214.64 1240.02 1217.19 1234.4 1222.19 1229.59C1225.24 1226.64 1228.77 1224.71 1232.73 1223.73C1236.69 1222.75 1240.55 1222.85 1244.31 1223.96L1243 1228.47C1240.02 1227.46 1236.95 1227.33 1233.74 1228.12C1230.54 1228.9 1227.72 1230.44 1225.27 1232.79C1221.15 1236.75 1219.05 1241.33 1219.02 1246.5C1218.99 1251.67 1220.82 1256.22 1224.58 1260.11C1228.31 1264.01 1232.79 1266.03 1237.96 1266.2C1243.13 1266.36 1247.78 1264.46 1251.9 1260.5C1255.6 1256.94 1257.69 1253.14 1258.12 1249.12C1258.54 1245.09 1257.53 1241.5 1255.07 1238.29L1241.95 1250.89L1238.94 1247.78L1255.5 1232.01Z" fill="#4C4C4C"/>
<path d="M1268.36 1201.78L1271.27 1198.61L1295.38 1220.72L1292.47 1223.9L1288.71 1220.46C1289.95 1224.91 1288.9 1228.93 1285.6 1232.53C1282.92 1235.44 1279.91 1236.95 1276.57 1236.98C1273.23 1237.05 1270.06 1235.67 1267.05 1232.89L1252.26 1219.31L1255.17 1216.14L1269.96 1229.72C1272.12 1231.68 1274.31 1232.66 1276.54 1232.6C1278.76 1232.57 1280.86 1231.49 1282.75 1229.39C1284.88 1227.07 1285.86 1224.52 1285.73 1221.74C1285.6 1218.95 1284 1216.14 1280.95 1213.36L1268.36 1201.78Z" fill="#4C4C4C"/>
<path d="M1291.49 1181.2L1285.44 1188.4L1300.62 1201.16C1301.99 1202.3 1303.2 1202.86 1304.22 1202.83C1305.26 1202.79 1306.21 1202.24 1307.13 1201.19C1308.05 1200.14 1309.16 1198.77 1310.43 1197.13L1313.35 1199.59C1310.92 1203.55 1308.47 1205.97 1305.95 1206.85C1303.43 1207.73 1300.75 1206.95 1297.84 1204.49L1282.66 1191.73L1278.24 1197L1275.03 1194.32L1279.45 1189.05L1273.43 1183.98L1275.2 1179.83L1282.2 1185.71L1288.28 1178.52L1291.49 1181.2Z" fill="#4C4C4C"/>
<path d="M1300.12 1162.26C1303.07 1158.43 1306.83 1156.37 1311.38 1156.1C1315.92 1155.84 1320.01 1157.12 1323.71 1160C1324.1 1160.29 1324.59 1160.75 1325.25 1161.34L1307.68 1184.08C1310.56 1185.75 1313.5 1186.27 1316.51 1185.55C1319.52 1184.83 1322.08 1183.13 1324.2 1180.38C1325.71 1178.42 1326.62 1176.39 1326.92 1174.33C1327.21 1172.27 1326.98 1170.37 1326.23 1168.64L1330.32 1167C1331.27 1169.55 1331.53 1172.23 1331.07 1175.02C1330.61 1177.8 1329.44 1180.48 1327.47 1183C1324.33 1187.09 1320.47 1189.41 1315.96 1189.97C1311.44 1190.56 1307.19 1189.31 1303.26 1186.27C1299.4 1183.29 1297.14 1179.53 1296.52 1175.02C1295.84 1170.47 1297.05 1166.21 1300.12 1162.26ZM1303.43 1164.81C1301.33 1167.49 1300.42 1170.37 1300.61 1173.41C1300.81 1176.45 1302.05 1179.14 1304.34 1181.46L1319.26 1162.16C1316.25 1160.39 1313.34 1159.8 1310.46 1160.39C1307.58 1160.98 1305.26 1162.45 1303.43 1164.81Z" fill="#4C4C4C"/>
<path d="M1322.57 1131.47C1324.83 1128.2 1327.61 1126.33 1330.88 1125.81C1334.19 1125.32 1337.52 1126.23 1340.89 1128.56L1357.42 1139.98L1354.96 1143.51L1338.44 1132.09C1336.05 1130.42 1333.73 1129.77 1331.54 1130.13C1329.31 1130.49 1327.41 1131.83 1325.81 1134.15C1324.01 1136.74 1323.39 1139.39 1323.91 1142.13C1324.44 1144.88 1326.4 1147.44 1329.8 1149.79L1343.9 1159.54L1341.45 1163.07L1314.56 1144.46L1317.01 1140.89L1321.2 1143.8C1319.33 1139.62 1319.79 1135.49 1322.57 1131.47Z" fill="#4C4C4C"/>
<path d="M1347.24 1068.75L1350.97 1070.95L1343.84 1083.08L1379.6 1104.09L1377.27 1108.05L1341.51 1087.04L1334.38 1099.18L1330.65 1096.99L1347.24 1068.75Z" fill="#4C4C4C"/>
<path d="M1371.55 1050.66L1373.58 1046.83L1402.53 1062.08L1400.5 1065.91L1394.84 1062.93C1397.69 1067.84 1397.75 1072.84 1395.04 1077.98C1392.85 1082.1 1389.54 1084.85 1385.06 1086.22C1380.58 1087.6 1376.23 1087.17 1371.97 1084.92C1367.72 1082.66 1364.91 1079.32 1363.5 1074.87C1362.09 1070.42 1362.49 1066.1 1364.68 1061.98C1367.39 1056.84 1371.55 1054.06 1377.21 1053.64L1371.55 1050.66ZM1383.88 1082.07C1387.25 1081.05 1389.8 1078.93 1391.47 1075.72C1393.17 1072.52 1393.47 1069.24 1392.42 1065.87C1391.37 1062.5 1389.25 1059.99 1386.01 1058.28C1382.8 1056.58 1379.53 1056.26 1376.13 1057.3C1372.76 1058.35 1370.21 1060.44 1368.54 1063.65C1366.84 1066.86 1366.54 1070.13 1367.59 1073.5C1368.64 1076.87 1370.8 1079.39 1374 1081.09C1377.21 1082.79 1380.51 1083.12 1383.88 1082.07Z" fill="#4C4C4C"/>
<path d="M1389.12 1013.17L1390.88 1009.24L1419.48 1022.2C1423.77 1024.13 1426.48 1027.14 1427.63 1031.19C1428.77 1035.25 1428.41 1039.34 1426.55 1043.43C1423.37 1050.43 1418.82 1054.03 1412.87 1054.26L1412.48 1049.91C1416.89 1049.74 1420.33 1047.03 1422.72 1041.7C1424.26 1038.29 1424.58 1035.19 1423.67 1032.41C1422.75 1029.62 1420.76 1027.53 1417.71 1026.16L1413.07 1024.06C1416.21 1028.77 1416.57 1033.78 1414.18 1039.08C1412.25 1043.33 1409.11 1046.28 1404.72 1047.91C1400.34 1049.55 1395.99 1049.39 1391.6 1047.39C1387.22 1045.39 1384.21 1042.22 1382.54 1037.87C1380.87 1033.52 1381 1029.2 1382.93 1024.95C1385.32 1019.68 1389.35 1016.64 1394.94 1015.88L1389.12 1013.17ZM1403.28 1043.82C1406.59 1042.58 1409.01 1040.32 1410.48 1037.02C1411.99 1033.71 1412.09 1030.41 1410.84 1027.14C1409.6 1023.87 1407.31 1021.45 1404 1019.94C1400.7 1018.44 1397.39 1018.3 1394.09 1019.55C1390.79 1020.79 1388.36 1023.05 1386.89 1026.35C1385.39 1029.66 1385.29 1032.96 1386.53 1036.27C1387.78 1039.57 1390.07 1041.96 1393.37 1043.46C1396.68 1044.97 1399.98 1045.03 1403.28 1043.82Z" fill="#4C4C4C"/>
</svg>
