<?xml version="1.0" encoding="utf-8"?>
<!-- Generator: Adobe Illustrator 21.0.2, SVG Export Plug-In . SVG Version: 6.00 Build 0)  -->
<svg version="1.1" id="Capa_1" xmlns="http://www.w3.org/2000/svg" xmlns:xlink="http://www.w3.org/1999/xlink" x="0px" y="0px"
	 viewBox="0 0 30.7 30.7" style="enable-background:new 0 0 30.7 30.7;" xml:space="preserve">
<style type="text/css">
	.st0{fill:url(#SVGID_1_);}
	.st1{fill:url(#SVGID_2_);}
	.st2{fill:#FFFFFF;}
</style>
<radialGradient id="SVGID_1_" cx="2.4512" cy="2.2125" r="37.6233" gradientTransform="matrix(1 0 0 -1 0 31.73)" gradientUnits="userSpaceOnUse">
	<stop  offset="9.000000e-02" style="stop-color:#FA8F21"/>
	<stop  offset="0.78" style="stop-color:#D82D7E"/>
</radialGradient>
<path class="st0" d="M8,30.1c-1.8-0.1-2.7-0.4-3.4-0.6c-0.8-0.3-1.4-0.7-2.1-1.4c-0.6-0.6-1-1.2-1.4-2.1c-0.2-0.6-0.5-1.6-0.6-3.4
	c-0.1-1.9-0.1-2.5-0.1-7.3S0.6,10,0.6,8C0.7,6.3,1,5.3,1.3,4.7C1.6,3.8,2,3.2,2.6,2.6c0.6-0.6,1.2-1,2.1-1.4C5.3,1,6.3,0.7,8,0.6
	c1.9-0.1,2.5-0.1,7.3-0.1c4.8,0,5.4,0,7.3,0.1C24.4,0.7,25.4,1,26,1.3c0.8,0.3,1.4,0.7,2.1,1.4c0.6,0.6,1,1.2,1.4,2.1
	C29.7,5.3,30,6.3,30.1,8c0.1,1.9,0.1,2.5,0.1,7.3c0,4.8,0,5.4-0.1,7.3c-0.1,1.8-0.4,2.7-0.6,3.4c-0.3,0.8-0.7,1.4-1.4,2.1
	c-0.6,0.6-1.2,1-2.1,1.4c-0.6,0.2-1.6,0.5-3.4,0.6c-1.9,0.1-2.5,0.1-7.3,0.1C10.5,30.2,10,30.1,8,30.1"/>
<radialGradient id="SVGID_2_" cx="21.0593" cy="3.164" r="33.1089" gradientTransform="matrix(1 0 0 -1 0 31.73)" gradientUnits="userSpaceOnUse">
	<stop  offset="0.64" style="stop-color:#8C3AAA;stop-opacity:0"/>
	<stop  offset="1" style="stop-color:#8C3AAA"/>
</radialGradient>
<path class="st1" d="M8,30.1c-1.8-0.1-2.7-0.4-3.4-0.6c-0.8-0.3-1.4-0.7-2.1-1.4c-0.6-0.6-1-1.2-1.4-2.1c-0.2-0.6-0.5-1.6-0.6-3.4
	c-0.1-1.9-0.1-2.5-0.1-7.3S0.6,10,0.6,8C0.7,6.3,1,5.3,1.3,4.7C1.6,3.8,2,3.2,2.6,2.6c0.6-0.6,1.2-1,2.1-1.4C5.3,1,6.3,0.7,8,0.6
	c1.9-0.1,2.5-0.1,7.3-0.1c4.8,0,5.4,0,7.3,0.1C24.4,0.7,25.4,1,26,1.3c0.8,0.3,1.4,0.7,2.1,1.4c0.6,0.6,1,1.2,1.4,2.1
	C29.7,5.3,30,6.3,30.1,8c0.1,1.9,0.1,2.5,0.1,7.3c0,4.8,0,5.4-0.1,7.3c-0.1,1.8-0.4,2.7-0.6,3.4c-0.3,0.8-0.7,1.4-1.4,2.1
	c-0.6,0.6-1.2,1-2.1,1.4c-0.6,0.2-1.6,0.5-3.4,0.6c-1.9,0.1-2.5,0.1-7.3,0.1C10.5,30.2,10,30.1,8,30.1"/>
<path class="st2" d="M11.7,15.4c0-2,1.6-3.7,3.7-3.7s3.7,1.6,3.7,3.7s-1.6,3.7-3.7,3.7S11.7,17.4,11.7,15.4 M9.7,15.4
	c0,3.1,2.5,5.7,5.7,5.7s5.7-2.5,5.7-5.7s-2.5-5.7-5.7-5.7S9.7,12.3,9.7,15.4 M19.9,9.5c0,0.7,0.6,1.3,1.3,1.3c0.7,0,1.3-0.6,1.3-1.3
	c0-0.7-0.6-1.3-1.3-1.3h0C20.5,8.2,19.9,8.8,19.9,9.5 M10.9,24.4c-1.1,0-1.7-0.2-2-0.4c-0.5-0.2-0.9-0.4-1.3-0.8
	c-0.4-0.4-0.6-0.8-0.8-1.3c-0.2-0.4-0.3-1-0.4-2c-0.1-1.2-0.1-1.5-0.1-4.4s0-3.3,0.1-4.4c0-1.1,0.2-1.7,0.4-2C7,8.4,7.2,8,7.6,7.7
	C8,7.3,8.4,7,8.9,6.8c0.4-0.2,1-0.3,2-0.4c1.2-0.1,1.5-0.1,4.4-0.1s3.3,0,4.4,0.1c1.1,0,1.7,0.2,2,0.4c0.5,0.2,0.9,0.4,1.3,0.8
	C23.5,8,23.8,8.4,24,8.9c0.2,0.4,0.3,1,0.4,2c0.1,1.2,0.1,1.5,0.1,4.4s0,3.3-0.1,4.4c0,1.1-0.2,1.7-0.4,2c-0.2,0.5-0.4,0.9-0.8,1.3
	s-0.8,0.6-1.3,0.8c-0.4,0.2-1,0.3-2,0.4c-1.2,0.1-1.5,0.1-4.4,0.1S12.1,24.4,10.9,24.4 M10.8,4.5C9.7,4.5,8.9,4.7,8.2,5
	c-0.7,0.3-1.3,0.7-2,1.3s-1,1.2-1.3,2c-0.3,0.7-0.5,1.5-0.5,2.7c-0.1,1.2-0.1,1.5-0.1,4.5s0,3.4,0.1,4.5c0.1,1.2,0.2,2,0.5,2.7
	c0.3,0.7,0.7,1.3,1.3,2c0.6,0.6,1.2,1,2,1.3c0.7,0.3,1.5,0.5,2.7,0.5c1.2,0.1,1.5,0.1,4.5,0.1s3.4,0,4.5-0.1c1.2-0.1,2-0.2,2.7-0.5
	c0.7-0.3,1.3-0.7,2-1.3c0.6-0.6,1-1.2,1.3-2c0.3-0.7,0.5-1.5,0.5-2.7c0.1-1.2,0.1-1.5,0.1-4.5s0-3.4-0.1-4.5c-0.1-1.2-0.2-2-0.5-2.7
	c-0.3-0.7-0.7-1.3-1.3-2c-0.6-0.6-1.2-1-1.9-1.3c-0.7-0.3-1.5-0.5-2.7-0.5c-1.2-0.1-1.5-0.1-4.5-0.1S12,4.4,10.8,4.5"/>
</svg>
